{"glyphs":{"0":{"ha":533,"x_min":0,"x_max":0,"o":"m 8 729 l 8 244 b 263 -14 8 76 99 -14 b 525 244 429 -14 525 79 l 525 729 b 263 986 525 893 429 986 b 8 729 99 986 8 897 z m 258 956 b 267 978 258 972 261 978 b 275 956 272 978 275 972 l 275 17 b 267 -6 275 1 272 -6 b 258 17 261 -6 258 1 z "},"1":{"ha":324,"x_min":0,"x_max":0,"o":"m 315 0 l 315 972 l 8 972 l 8 964 l 64 964 l 65 961 l 65 0 z "},"2":{"ha":535,"x_min":0,"x_max":0,"o":"m 10 569 l 260 569 l 260 956 b 268 978 260 971 263 978 b 276 956 274 978 276 971 l 276 614 b 167 493 276 560 276 554 l 129 472 b 10 207 35 419 10 369 l 10 0 l 526 0 l 526 8 l 260 8 l 260 167 b 358 336 260 276 263 282 l 403 361 b 526 717 500 415 526 554 l 526 729 b 272 986 526 897 436 986 b 10 729 106 986 10 893 z "},"3":{"ha":533,"x_min":0,"x_max":0,"o":"m 275 956 l 275 582 b 211 490 275 511 272 490 l 188 490 l 188 482 l 211 482 b 275 390 272 482 275 461 l 275 17 b 267 -6 275 0 272 -6 b 258 17 261 -6 258 0 l 258 333 l 8 333 l 8 243 b 271 -14 8 79 104 -14 b 525 243 435 -14 525 75 l 525 256 b 317 486 525 407 450 486 l 317 489 b 525 717 450 489 525 565 l 525 729 b 271 986 525 897 435 986 b 8 729 104 986 8 893 l 8 639 l 258 639 l 258 956 b 267 978 258 972 261 978 b 275 956 272 978 275 972 z "},"4":{"ha":533,"x_min":0,"x_max":0,"o":"m 275 972 l 275 364 l 258 364 l 258 972 l 8 972 l 8 356 l 275 356 l 275 0 l 525 0 l 525 972 z "},"5":{"ha":533,"x_min":0,"x_max":0,"o":"m 8 417 l 258 417 l 258 581 b 267 600 258 593 263 600 b 275 581 271 600 275 594 l 275 17 b 267 -6 275 1 272 -6 b 258 17 261 -6 258 1 l 258 394 l 8 394 l 8 244 b 271 -14 8 79 104 -14 b 525 244 435 -14 525 76 l 525 465 b 358 646 525 588 439 646 b 261 610 321 646 286 633 l 258 610 l 258 964 l 497 964 l 497 972 l 8 972 z "},"6":{"ha":533,"x_min":0,"x_max":0,"o":"m 525 613 l 525 729 b 263 986 525 893 429 986 b 8 729 99 986 8 897 l 8 244 b 263 -14 8 76 99 -14 b 525 244 429 -14 525 79 l 525 411 b 371 596 525 536 456 596 b 263 563 336 596 297 586 l 260 563 l 260 956 b 268 978 260 972 263 978 b 275 956 272 978 275 972 l 275 613 z m 260 533 b 267 554 260 549 261 554 b 275 533 274 554 275 549 l 275 17 b 267 -6 275 1 272 -6 b 260 15 261 -6 260 1 z "},"7":{"ha":507,"x_min":0,"x_max":0,"o":"m 8 964 l 235 964 l 238 963 l 40 0 l 297 0 l 497 964 l 497 972 l 8 972 z "},"8":{"ha":533,"x_min":0,"x_max":0,"o":"m 8 743 l 8 711 b 147 514 8 597 83 514 l 147 511 b 8 274 83 511 8 426 l 8 244 b 263 -14 8 76 82 -14 b 525 244 443 -14 525 79 l 525 274 b 372 511 525 436 436 511 l 372 514 b 525 711 436 514 525 597 l 525 743 b 261 986 525 893 443 986 b 8 743 82 986 8 897 z m 258 956 b 267 978 258 972 261 978 b 275 956 272 978 275 972 l 275 539 b 267 517 275 524 272 517 b 258 539 261 517 258 524 z m 258 486 b 267 508 258 503 261 508 b 275 486 272 508 275 503 l 275 17 b 267 -6 275 1 272 -6 b 258 17 261 -6 258 1 z "},"9":{"ha":533,"x_min":0,"x_max":0,"o":"m 8 360 l 8 243 b 271 -14 8 79 104 -14 b 525 243 435 -14 525 75 l 525 728 b 271 986 525 896 435 986 b 8 728 104 986 8 893 l 8 561 b 163 376 8 436 78 376 b 271 410 197 376 236 388 l 274 410 l 274 17 b 265 -6 274 0 271 -6 b 258 17 261 -6 258 0 l 258 360 z m 275 439 b 267 418 275 424 274 418 b 258 439 260 418 258 424 l 258 956 b 267 978 258 971 261 978 b 275 957 272 978 275 971 z "},"\u0000":{"ha":0,"x_min":0,"x_max":0,"o":""},"\r":{"ha":347,"x_min":0,"x_max":0,"o":""}," ":{"ha":222,"x_min":0,"x_max":0,"o":""},"F":{"ha":372,"x_min":0,"x_max":0,"o":"m 369 964 l 369 972 l 8 972 l 8 0 l 258 0 l 258 482 l 363 482 l 363 490 l 258 490 l 258 964 z "},"G":{"ha":533,"x_min":0,"x_max":0,"o":"m 258 956 b 267 978 258 972 261 978 b 275 956 272 978 275 972 l 275 556 l 525 556 l 525 729 b 263 986 525 893 429 986 b 8 729 99 986 8 897 l 8 244 b 206 -14 8 51 111 -14 b 353 64 272 -14 335 19 l 356 64 l 356 0 l 525 0 l 525 503 l 258 503 z m 258 494 l 275 494 l 275 32 b 267 10 275 17 272 10 b 258 32 261 10 258 17 z "},"H":{"ha":533,"x_min":0,"x_max":0,"o":"m 275 972 l 275 503 l 258 503 l 258 972 l 8 972 l 8 0 l 258 0 l 258 494 l 275 494 l 275 0 l 525 0 l 525 972 z "},"I":{"ha":267,"x_min":0,"x_max":0,"o":"m 8 972 l 8 0 l 258 0 l 258 972 z "},"J":{"ha":533,"x_min":0,"x_max":0,"o":"m 275 972 l 275 17 b 267 -6 275 1 272 -6 b 258 17 261 -6 258 1 l 258 465 l 8 465 l 8 244 b 261 -14 8 76 94 -14 b 525 244 431 -14 525 79 l 525 972 z "},"K":{"ha":554,"x_min":0,"x_max":0,"o":"m 258 972 l 8 972 l 8 0 l 258 0 l 258 524 l 261 524 l 300 0 l 550 0 l 475 528 l 536 972 l 286 972 l 261 532 l 258 532 z "},"L":{"ha":374,"x_min":0,"x_max":0,"o":"m 8 972 l 8 0 l 369 0 l 369 8 l 258 8 l 258 972 z "},"M":{"ha":614,"x_min":0,"x_max":0,"o":"m 8 972 l 8 0 l 17 0 l 17 789 l 19 789 l 61 0 l 314 0 l 353 789 l 356 789 l 356 0 l 606 0 l 606 972 l 350 972 l 308 126 l 306 126 l 258 972 z "},"N":{"ha":481,"x_min":0,"x_max":0,"o":"m 464 972 l 464 69 l 461 69 l 261 972 l 8 972 l 8 0 l 17 0 l 17 932 l 19 932 l 222 0 l 472 0 l 472 972 z "},"O":{"ha":533,"x_min":0,"x_max":0,"o":"m 8 729 l 8 244 b 263 -14 8 76 99 -14 b 525 244 429 -14 525 79 l 525 729 b 263 986 525 893 429 986 b 8 729 99 986 8 897 z m 258 956 b 267 978 258 972 261 978 b 275 956 272 978 275 972 l 275 17 b 267 -6 275 1 272 -6 b 258 17 261 -6 258 1 z "},"P":{"ha":533,"x_min":0,"x_max":0,"o":"m 8 972 l 8 0 l 258 0 l 258 390 l 261 390 b 525 672 440 390 525 458 l 525 675 b 264 972 525 881 431 972 z m 258 964 l 261 964 b 275 944 275 964 275 961 l 275 421 b 261 399 275 401 275 399 l 258 399 z "},"Q":{"ha":533,"x_min":0,"x_max":0,"o":"m 8 729 l 8 244 b 182 -6 8 107 69 21 l 182 -37 b 383 -211 182 -176 244 -211 l 472 -211 l 472 -203 l 458 -203 b 349 -89 364 -203 349 -171 l 349 -4 b 525 244 461 24 525 110 l 525 729 b 263 986 525 893 429 986 b 8 729 99 986 8 897 z m 258 956 b 267 978 258 972 261 978 b 275 956 272 978 275 972 l 275 17 b 267 -6 275 1 272 -6 b 258 17 261 -6 258 1 z "},"R":{"ha":533,"x_min":0,"x_max":0,"o":"m 8 972 l 8 0 l 258 0 l 258 451 l 261 451 b 275 429 275 451 275 449 l 275 199 b 289 0 275 124 276 60 l 539 0 b 525 197 526 60 525 124 l 525 208 b 314 454 525 357 442 454 l 314 457 b 525 706 443 457 525 542 l 525 713 b 264 972 525 889 429 972 z m 258 964 l 261 964 b 275 942 275 964 275 961 l 275 482 b 261 460 275 463 275 460 l 258 460 z "},"S":{"ha":533,"x_min":0,"x_max":0,"o":"m 525 639 l 525 729 b 263 986 525 893 429 986 b 8 729 99 986 8 897 l 8 717 b 132 431 8 554 35 485 l 176 406 b 275 306 272 351 275 346 l 275 15 b 267 -6 275 1 272 -6 b 258 17 261 -6 258 1 l 258 333 l 8 333 l 8 244 b 263 -14 8 76 97 -14 b 525 244 429 -14 525 79 l 525 263 b 406 542 525 425 500 489 l 368 563 b 258 669 261 622 258 629 l 258 956 b 267 978 258 971 261 978 b 275 956 272 978 275 971 l 275 639 z "},"T":{"ha":511,"x_min":0,"x_max":0,"o":"m 506 972 l 6 972 l 6 964 l 131 964 l 131 0 l 381 0 l 381 964 l 506 964 z "},"U":{"ha":533,"x_min":0,"x_max":0,"o":"m 8 972 l 8 244 b 263 -14 8 76 97 -14 b 525 244 431 -14 525 79 l 525 972 l 275 972 l 275 17 b 267 -6 275 1 272 -6 b 258 17 261 -6 258 1 l 258 972 z "},"V":{"ha":442,"x_min":0,"x_max":0,"o":"m 4 972 l 122 0 l 319 0 l 438 972 l 426 972 l 342 279 l 339 279 l 254 972 z "},"W":{"ha":753,"x_min":0,"x_max":0,"o":"m 4 972 l 94 0 l 292 0 l 375 901 l 378 901 l 461 0 l 658 0 l 749 972 l 738 972 l 681 364 l 678 364 l 621 972 l 371 972 l 314 364 l 311 364 l 254 972 z "},"X":{"ha":447,"x_min":0,"x_max":0,"o":"m 254 972 l 4 972 l 108 439 l 4 0 l 15 0 l 113 407 l 115 407 l 193 0 l 443 0 l 340 526 l 435 972 l 424 972 l 336 561 l 333 561 z "},"Y":{"ha":407,"x_min":0,"x_max":0,"o":"m 4 972 l 78 397 l 78 0 l 329 0 l 329 397 l 403 972 l 392 972 l 326 461 l 324 461 l 253 972 z "},"Z":{"ha":468,"x_min":0,"x_max":0,"o":"m 18 972 l 18 964 l 197 964 l 199 961 l 4 8 l 4 0 l 464 0 l 464 8 l 257 8 l 256 11 l 450 964 l 450 972 z "},"a":{"ha":506,"x_min":0,"x_max":0,"o":"m 261 692 l 261 382 l 153 382 b 8 242 72 382 8 321 l 8 126 b 135 -14 8 44 61 -14 b 258 61 181 -14 221 10 l 261 61 l 261 0 l 497 0 l 497 483 b 250 722 497 631 401 722 b 8 483 99 722 8 632 l 8 404 l 244 404 l 244 692 b 253 714 244 707 247 714 b 261 692 258 714 261 707 z m 261 75 b 251 68 258 71 254 68 b 244 79 247 68 244 72 l 244 363 b 251 374 244 369 247 374 l 261 374 z "},"b":{"ha":506,"x_min":0,"x_max":0,"o":"m 8 0 l 244 0 l 244 61 l 247 61 b 368 -14 283 11 324 -14 b 497 178 447 -14 497 60 l 497 540 b 371 722 497 654 450 722 b 247 647 325 722 285 699 l 244 647 l 244 1000 l 8 1000 z m 244 633 b 254 640 247 638 251 640 b 261 629 258 640 261 636 l 261 82 b 254 68 261 74 258 68 b 244 75 251 68 247 71 z "},"c":{"ha":506,"x_min":0,"x_max":0,"o":"m 244 692 b 253 714 244 707 247 714 b 261 692 258 714 261 707 l 261 414 l 497 414 l 497 483 b 250 722 497 631 401 722 b 8 483 99 722 8 632 l 8 225 b 250 -14 8 76 99 -14 b 497 225 401 -14 497 78 l 497 294 l 261 294 l 261 17 b 253 -6 261 1 258 -6 b 244 17 247 -6 244 1 z "},"d":{"ha":506,"x_min":0,"x_max":0,"o":"m 497 0 l 497 1000 l 261 1000 l 261 674 l 258 675 b 135 722 228 706 182 722 b 8 560 61 722 8 676 l 8 199 b 121 -14 8 42 57 -14 b 258 49 167 -14 222 14 l 261 49 l 261 0 z m 261 61 b 251 54 258 57 254 54 b 244 67 247 54 244 60 l 244 657 b 251 668 244 664 247 668 b 261 661 254 668 258 665 z "},"e":{"ha":506,"x_min":0,"x_max":0,"o":"m 261 294 l 261 17 b 253 -6 261 1 258 -6 b 244 17 247 -6 244 1 l 244 354 l 497 354 l 497 483 b 250 722 497 631 401 722 b 8 483 99 722 8 632 l 8 225 b 250 -14 8 76 99 -14 b 497 225 401 -14 497 78 l 497 294 z m 244 692 b 253 714 244 707 247 714 b 261 692 258 714 261 707 l 261 363 l 244 363 z "},"f":{"ha":390,"x_min":0,"x_max":0,"o":"m 56 767 l 56 708 l 0 708 l 0 700 l 56 700 l 56 0 l 292 0 l 292 700 l 390 700 l 390 708 l 292 708 l 292 894 b 354 982 292 960 311 982 b 390 979 365 982 376 981 l 390 986 b 253 1000 340 994 294 1000 b 56 767 135 1000 56 951 z "},"g":{"ha":506,"x_min":0,"x_max":0,"o":"m 497 708 l 261 708 l 261 647 l 258 647 b 135 722 221 699 181 722 b 8 540 56 722 8 654 l 8 178 b 138 -14 8 60 58 -14 b 258 61 182 -14 222 11 l 261 61 l 261 -258 b 253 -283 261 -276 258 -283 b 244 -261 247 -283 244 -276 l 244 -36 l 8 -36 l 8 -81 b 254 -292 8 -214 99 -292 b 497 -81 410 -292 497 -215 z m 261 633 l 261 75 b 251 68 258 71 254 68 b 244 82 247 68 244 74 l 244 629 b 251 640 244 636 247 640 b 261 633 254 640 258 638 z "},"h":{"ha":506,"x_min":0,"x_max":0,"o":"m 8 0 l 244 0 l 244 633 b 254 640 247 638 251 640 b 261 629 258 640 261 636 l 261 0 l 497 0 l 497 540 b 371 722 497 671 439 722 b 247 647 324 722 286 699 l 244 647 l 244 1000 l 8 1000 z "},"i":{"ha":256,"x_min":0,"x_max":0,"o":"m 1 861 b 128 749 1 783 50 749 b 254 861 206 749 254 783 b 126 974 254 938 204 974 b 1 861 50 974 1 939 z m 10 708 l 10 0 l 246 0 l 246 708 z "},"j":{"ha":254,"x_min":0,"x_max":0,"o":"m 0 861 b 126 749 0 788 44 749 b 253 860 210 749 253 788 b 125 974 253 933 207 974 b 0 861 44 974 0 935 z m 244 -60 l 244 708 l 8 708 l 8 -187 b -36 -272 8 -225 8 -272 b -56 -271 -42 -272 -49 -272 l -56 -279 b 68 -292 -10 -286 32 -292 b 244 -60 179 -292 244 -244 z "},"k":{"ha":494,"x_min":0,"x_max":0,"o":"m 244 1000 l 8 1000 l 8 0 l 244 0 l 244 368 l 247 368 l 278 0 l 508 0 l 446 372 l 500 708 l 269 708 l 247 376 l 244 376 z "},"l":{"ha":253,"x_min":0,"x_max":0,"o":"m 8 0 l 244 0 l 244 1000 l 8 1000 z "},"m":{"ha":758,"x_min":0,"x_max":0,"o":"m 8 0 l 244 0 l 244 633 b 254 640 247 638 251 640 b 261 629 258 640 261 636 l 261 0 l 497 0 l 497 540 b 488 624 497 572 493 600 b 507 640 497 635 504 640 b 514 629 511 640 514 636 l 514 0 l 750 0 l 750 540 b 615 722 750 657 688 722 b 483 647 571 722 524 697 l 479 647 b 371 722 457 700 415 722 b 250 647 324 722 290 699 l 244 647 l 244 708 l 8 708 z "},"n":{"ha":506,"x_min":0,"x_max":0,"o":"m 8 0 l 244 0 l 244 633 b 254 640 247 638 251 640 b 261 629 258 640 261 636 l 261 0 l 497 0 l 497 540 b 371 722 497 671 439 722 b 247 647 324 722 288 699 l 244 647 l 244 708 l 8 708 z "},"o":{"ha":506,"x_min":0,"x_max":0,"o":"m 8 483 l 8 225 b 250 -14 8 86 89 -14 b 497 225 411 -14 497 88 l 497 483 b 250 722 497 621 411 722 b 8 483 89 722 8 622 z m 244 692 b 253 714 244 708 247 714 b 261 692 258 714 261 708 l 261 17 b 253 -6 261 1 258 -6 b 244 17 247 -6 244 1 z "},"p":{"ha":506,"x_min":0,"x_max":0,"o":"m 8 708 l 8 -278 l 244 -278 l 244 75 l 247 76 b 375 -14 297 11 332 -14 b 497 176 450 -14 497 60 l 497 526 b 374 722 497 644 449 722 b 247 632 332 722 297 697 l 244 632 l 244 708 z m 244 619 b 254 626 247 624 251 626 b 261 615 258 626 261 622 l 261 96 b 254 82 261 88 258 82 b 244 89 251 82 247 85 z "},"q":{"ha":506,"x_min":0,"x_max":0,"o":"m 497 708 l 261 708 l 261 633 l 258 633 b 132 722 210 696 175 722 b 8 526 57 722 8 644 l 8 176 b 131 -14 8 60 56 -14 b 258 76 175 -14 208 11 l 261 76 l 261 -278 l 497 -278 z m 261 89 b 251 82 258 85 254 82 b 244 96 247 82 244 88 l 244 615 b 251 626 244 622 247 626 b 261 619 254 626 258 624 z "},"r":{"ha":397,"x_min":0,"x_max":0,"o":"m 244 708 l 8 708 l 8 0 l 244 0 l 244 375 b 350 489 244 450 275 489 b 389 486 363 489 376 488 l 389 721 b 375 722 383 722 379 722 b 247 457 293 722 261 594 l 244 457 z "},"s":{"ha":506,"x_min":0,"x_max":0,"o":"m 497 467 l 497 496 b 251 722 497 621 410 722 b 10 511 93 722 10 622 l 10 489 b 118 311 10 394 39 347 l 218 265 b 260 207 256 249 260 242 l 260 21 b 251 -4 260 6 257 -4 b 244 21 246 -4 244 4 l 244 242 l 8 242 l 8 214 b 249 -14 8 86 90 -14 b 496 197 408 -14 496 88 l 496 219 b 381 399 496 314 458 360 l 282 447 b 246 496 250 463 246 469 l 246 689 b 254 714 246 707 249 714 b 261 689 260 714 261 707 l 261 467 z "},"t":{"ha":396,"x_min":0,"x_max":0,"o":"m 0 700 l 56 700 l 56 221 b 253 -14 56 36 135 -14 b 390 0 294 -14 340 -8 l 390 8 b 354 6 376 6 365 6 b 292 92 311 6 292 26 l 292 700 l 390 700 l 390 708 l 292 708 l 292 875 l 56 861 l 56 708 l 0 708 z "},"u":{"ha":506,"x_min":0,"x_max":0,"o":"m 497 708 l 261 708 l 261 75 b 251 68 258 71 254 68 b 244 79 247 68 244 72 l 244 708 l 8 708 l 8 168 b 135 -14 8 38 67 -14 b 260 61 182 -14 218 10 l 261 61 l 261 0 l 497 0 z "},"v":{"ha":383,"x_min":0,"x_max":0,"o":"m 6 708 l 101 0 l 282 0 l 378 708 l 369 708 l 307 247 l 304 247 l 242 708 z "},"w":{"ha":692,"x_min":0,"x_max":0,"o":"m 6 708 l 88 0 l 268 0 l 344 660 l 347 660 l 424 0 l 604 0 l 686 708 l 678 708 l 629 289 l 626 289 l 578 708 l 342 708 l 293 289 l 290 289 l 242 708 z "},"x":{"ha":400,"x_min":0,"x_max":0,"o":"m 249 708 l 13 708 l 89 339 l 6 0 l 14 0 l 92 314 l 94 314 l 158 0 l 394 0 l 315 383 l 389 708 l 381 708 l 313 411 l 310 411 z "},"y":{"ha":506,"x_min":0,"x_max":0,"o":"m 497 708 l 261 708 l 261 75 b 251 68 258 71 254 68 b 244 79 247 68 244 72 l 244 708 l 8 708 l 8 168 b 135 -14 8 38 67 -14 b 260 61 182 -14 218 10 l 261 61 l 261 -258 b 253 -283 261 -276 258 -283 b 244 -261 247 -283 244 -276 l 244 -36 l 8 -36 l 8 -81 b 254 -292 8 -214 99 -292 b 497 -81 410 -292 497 -215 z "},"z":{"ha":449,"x_min":0,"x_max":0,"o":"m 443 0 l 443 8 l 247 8 l 246 11 l 425 700 l 425 708 l 25 708 l 25 700 l 185 700 l 186 697 l 6 8 l 6 0 z "},"$":{"ha":533,"x_min":0,"x_max":0,"o":"m 525 639 l 525 729 b 285 986 525 886 438 978 l 378 1110 l 156 1110 l 249 986 b 8 729 93 981 8 892 l 8 717 b 132 431 8 554 35 485 l 176 406 b 275 306 272 351 275 346 l 275 15 b 267 -6 275 1 272 -6 b 258 17 261 -6 258 1 l 258 333 l 8 333 l 8 244 b 249 -14 8 81 93 -8 l 156 -137 l 378 -137 l 285 -14 b 525 244 438 -6 525 86 l 525 263 b 406 542 525 425 500 489 l 368 563 b 258 669 261 622 258 629 l 258 956 b 267 978 258 971 261 978 b 275 956 272 978 275 971 l 275 639 z "},"¢":{"ha":506,"x_min":0,"x_max":0,"o":"m 244 692 b 253 714 244 707 247 714 b 261 692 258 714 261 707 l 261 414 l 497 414 l 497 483 b 269 722 497 624 410 714 l 364 847 l 142 847 l 236 722 b 8 483 93 717 8 628 l 8 225 b 236 -14 8 81 93 -8 l 142 -140 l 364 -140 l 269 -14 b 497 225 410 -6 497 85 l 497 294 l 261 294 l 261 17 b 253 -6 261 1 258 -6 b 244 17 247 -6 244 1 z "},"¥":{"ha":411,"x_min":0,"x_max":0,"o":"m 8 972 l 82 397 l 82 386 l 6 386 l 6 378 l 82 378 l 82 267 l 6 267 l 6 258 l 82 258 l 82 0 l 333 0 l 333 258 l 403 258 l 403 267 l 333 267 l 333 378 l 403 378 l 403 386 l 333 386 l 333 397 l 407 972 l 396 972 l 331 461 l 328 461 l 257 972 z "},"§":{"ha":507,"x_min":0,"x_max":0,"o":"m 497 703 l 497 760 b 251 986 497 885 410 986 b 10 775 93 986 10 886 l 10 669 b 61 528 10 603 25 560 b 10 399 26 492 10 446 l 10 293 b 118 115 10 199 39 151 l 218 69 b 261 19 256 53 261 46 l 261 -264 b 253 -285 261 -278 258 -285 b 244 -264 247 -285 244 -278 l 244 -10 l 8 -10 l 8 -65 b 249 -293 8 -193 90 -293 b 496 -82 408 -293 496 -192 l 496 24 b 444 161 496 88 479 129 b 496 294 481 196 496 242 l 496 400 b 381 579 496 494 458 540 l 282 628 b 244 676 250 643 244 650 l 244 956 b 253 976 244 969 247 976 b 261 956 258 976 261 969 l 261 703 z m 246 283 b 244 300 244 289 244 293 l 244 385 b 260 411 244 396 246 406 b 261 396 261 407 261 401 l 261 311 b 246 283 261 304 260 293 z "},"D":{"ha":533,"x_min":0,"x_max":0,"o":"m 8 972 l 8 0 l 264 0 b 525 243 429 0 525 79 l 525 729 b 264 972 525 892 429 972 z m 258 964 l 261 964 b 275 942 275 964 275 961 l 275 31 b 261 8 275 11 275 8 l 258 8 z "},"…":{"ha":760,"x_min":0,"x_max":0,"o":"m 8 119 b 128 -7 8 38 50 -7 b 247 117 206 -7 247 38 b 128 244 247 199 204 244 b 8 119 50 244 8 201 z m 261 119 b 381 -7 261 38 303 -7 b 500 117 458 -7 500 38 b 381 244 500 199 457 244 b 261 119 303 244 261 201 z m 513 119 b 632 -7 513 38 554 -7 b 751 117 710 -7 751 38 b 632 244 751 199 708 244 b 513 119 554 244 513 201 z "},"÷":{"ha":525,"x_min":0,"x_max":0,"o":"m 156 694 b 264 581 156 619 193 581 b 371 692 333 581 371 619 b 264 807 371 765 332 807 b 156 694 193 807 156 768 z m 517 482 l 8 482 l 8 474 l 517 474 z m 156 260 b 264 146 156 185 193 146 b 371 257 333 146 371 185 b 264 372 371 331 332 372 b 156 260 193 372 156 333 z "},"!":{"ha":267,"x_min":0,"x_max":0,"o":"m 8 972 l 8 917 l 129 254 l 138 254 l 258 917 l 258 972 z m 14 119 b 133 -7 14 38 56 -7 b 253 117 211 -7 253 38 b 133 244 253 199 210 244 b 14 119 56 244 14 201 z "},".":{"ha":256,"x_min":0,"x_max":0,"o":"m 8 119 b 128 -7 8 38 50 -7 b 247 117 206 -7 247 38 b 128 244 247 199 204 244 b 8 119 50 244 8 201 z "},",":{"ha":256,"x_min":0,"x_max":0,"o":"m -12 -133 l 24 -133 l 247 224 l 31 224 z "},":":{"ha":256,"x_min":0,"x_max":0,"o":"m 8 592 b 128 465 8 510 50 465 b 247 589 206 465 247 510 b 128 717 247 671 204 717 b 8 592 50 717 8 674 z m 8 119 b 128 -7 8 38 50 -7 b 247 117 206 -7 247 38 b 128 244 247 199 204 244 b 8 119 50 244 8 201 z "},"”":{"ha":479,"x_min":0,"x_max":0,"o":"m 310 564 l 321 564 l 469 1000 l 247 1000 z m 71 564 l 82 564 l 231 1000 l 8 1000 z "},"“":{"ha":479,"x_min":0,"x_max":0,"o":"m 168 1000 l 157 1000 l 8 564 l 231 564 z m 407 1000 l 396 1000 l 247 564 l 469 564 z "},"’":{"ha":239,"x_min":0,"x_max":0,"o":"m 71 564 l 82 564 l 231 1000 l 8 1000 z "},"‘":{"ha":239,"x_min":0,"x_max":0,"o":"m 168 1000 l 157 1000 l 8 564 l 231 564 z "},"?":{"ha":535,"x_min":0,"x_max":0,"o":"m 10 597 l 260 597 l 260 956 b 268 978 260 971 263 978 b 276 956 274 978 276 971 l 276 669 b 221 528 276 592 250 563 l 219 526 b 135 290 181 482 135 431 l 135 254 l 371 254 l 371 306 b 432 449 371 371 399 407 l 433 451 b 526 717 476 506 526 569 l 526 729 b 272 986 526 897 436 986 b 10 729 106 986 10 893 z m 132 119 b 251 -7 132 38 174 -7 b 371 117 329 -7 371 38 b 251 244 371 199 328 244 b 132 119 174 244 132 201 z "},"|":{"ha":267,"x_min":0,"x_max":0,"o":"m 258 -215 l 258 1000 l 8 1000 l 8 -215 z "},"/":{"ha":150,"x_min":0,"x_max":0,"o":"m 19 -111 l 142 1014 l 131 1014 l 8 -111 z "},"\\":{"ha":150,"x_min":0,"x_max":0,"o":"m 131 -111 l 142 -111 l 19 1014 l 8 1014 z "},"⁄":{"ha":172,"x_min":0,"x_max":0,"o":"m 164 1000 l 156 1000 l 10 0 l 18 0 z "},"<":{"ha":418,"x_min":0,"x_max":0,"o":"m 408 178 l 33 365 l 33 368 l 410 558 l 410 571 l 8 368 l 8 365 l 408 165 z "},">":{"ha":418,"x_min":0,"x_max":0,"o":"m 8 558 l 383 371 l 383 368 l 8 178 l 8 165 l 408 368 l 408 371 l 8 571 z "},"%":{"ha":840,"x_min":0,"x_max":0,"o":"m 8 747 l 8 656 b 208 417 8 517 61 417 b 414 656 356 417 414 518 l 414 747 b 208 986 414 885 356 986 b 8 747 61 986 8 886 z m 203 956 b 211 978 203 972 206 978 b 219 956 217 978 219 972 l 219 447 b 211 425 219 432 217 425 b 203 447 206 425 203 432 z m 206 0 l 217 0 l 633 972 l 622 972 z m 426 317 l 426 225 b 626 -14 426 86 479 -14 b 832 225 774 -14 832 88 l 832 317 b 626 556 832 454 774 556 b 426 317 479 556 426 456 z m 621 525 b 629 547 621 542 624 547 b 638 525 635 547 638 542 l 638 17 b 629 -6 638 1 635 -6 b 621 17 624 -6 621 1 z "},"‰":{"ha":1263,"x_min":0,"x_max":0,"o":"m 8 747 l 8 656 b 208 417 8 517 61 417 b 414 656 356 417 414 518 l 414 747 b 208 986 414 885 356 986 b 8 747 61 986 8 886 z m 203 956 b 211 978 203 972 206 978 b 219 956 217 978 219 972 l 219 447 b 211 425 219 432 217 425 b 203 447 206 425 203 432 z m 206 0 l 217 0 l 633 972 l 622 972 z m 426 317 l 426 225 b 626 -14 426 86 479 -14 b 832 225 774 -14 832 88 l 832 317 b 626 556 832 454 774 556 b 426 317 479 556 426 456 z m 849 317 l 849 225 b 1049 -14 849 86 901 -14 b 1254 225 1196 -14 1254 88 l 1254 317 b 1049 556 1254 454 1196 556 b 849 317 901 556 849 456 z m 621 525 b 629 547 621 542 624 547 b 638 525 635 547 638 542 l 638 17 b 629 -6 638 1 635 -6 b 621 17 624 -6 621 1 z m 1043 525 b 1051 547 1043 542 1046 547 b 1060 525 1057 547 1060 542 l 1060 17 b 1051 -6 1060 1 1057 -6 b 1043 17 1046 -6 1043 1 z "},"«":{"ha":701,"x_min":0,"x_max":0,"o":"m 414 106 l 21 365 l 21 368 l 415 631 l 410 640 l 8 374 l 8 360 l 408 96 z m 692 106 l 299 365 l 299 368 l 693 631 l 688 640 l 286 374 l 286 360 l 686 96 z "},"»":{"ha":701,"x_min":0,"x_max":0,"o":"m 288 631 l 681 371 l 681 368 l 288 106 l 293 96 l 693 363 l 693 376 l 293 640 z m 10 631 l 403 371 l 403 368 l 10 106 l 15 96 l 415 363 l 415 376 l 15 640 z "},"^":{"ha":339,"x_min":0,"x_max":0,"o":"m 331 653 l 171 972 l 168 972 l 8 653 l 21 653 l 168 947 l 171 947 l 318 653 z "},"*":{"ha":542,"x_min":0,"x_max":0,"o":"m 54 638 l 200 531 l 271 760 l 343 531 l 488 636 l 292 776 l 532 772 l 476 944 l 283 800 l 361 1028 l 181 1028 l 258 800 l 65 944 l 10 772 l 250 775 z "},"#":{"ha":635,"x_min":0,"x_max":0,"o":"m 108 0 l 275 0 l 296 372 l 326 372 l 306 0 l 472 0 l 493 372 l 626 372 l 626 381 l 493 381 l 506 593 l 626 593 l 626 601 l 506 601 l 528 974 l 361 974 l 340 601 l 308 601 l 331 974 l 164 974 l 143 601 l 10 601 l 10 593 l 142 593 l 131 381 l 10 381 l 10 372 l 129 372 z m 296 381 l 308 593 l 339 593 l 328 381 z "},"[":{"ha":350,"x_min":0,"x_max":0,"o":"m 342 -215 l 342 -207 l 258 -207 l 258 992 l 342 992 l 342 1000 l 8 1000 l 8 -215 z "},"]":{"ha":350,"x_min":0,"x_max":0,"o":"m 8 1000 l 8 992 l 92 992 l 92 -207 l 8 -207 l 8 -215 l 342 -215 l 342 1000 z "},"(":{"ha":339,"x_min":0,"x_max":0,"o":"m 315 -219 l 329 -215 b 258 388 282 -47 258 169 b 329 1000 258 606 282 825 l 315 1004 b 8 388 111 824 8 604 b 315 -219 8 169 111 -46 z "},")":{"ha":339,"x_min":0,"x_max":0,"o":"m 22 1004 l 8 1000 b 79 397 56 832 79 617 b 8 -215 79 179 56 -40 l 22 -219 b 329 397 228 -39 329 181 b 22 1004 329 615 228 831 z "},"{":{"ha":483,"x_min":0,"x_max":0,"o":"m 356 900 b 447 1019 356 1000 372 1019 l 474 1019 l 474 1028 l 360 1028 b 106 771 196 1028 106 939 l 106 486 b 8 399 106 429 92 399 l 8 390 b 106 303 92 390 106 360 l 106 14 b 360 -243 106 -154 196 -243 l 474 -243 l 474 -235 l 447 -235 b 356 -115 372 -235 356 -215 l 356 208 b 225 392 356 310 328 392 l 225 394 b 356 578 328 394 356 476 z "},"}":{"ha":483,"x_min":0,"x_max":0,"o":"m 126 -115 b 35 -235 126 -215 110 -235 l 8 -235 l 8 -243 l 122 -243 b 376 14 286 -243 376 -154 l 376 299 b 474 386 376 356 390 386 l 474 394 b 376 482 390 394 376 425 l 376 771 b 122 1028 376 939 286 1028 l 8 1028 l 8 1019 l 35 1019 b 126 900 110 1019 126 1000 l 126 576 b 257 393 126 475 154 393 l 257 390 b 126 207 154 390 126 308 z "},"@":{"ha":922,"x_min":0,"x_max":0,"o":"m 664 667 l 483 667 l 483 564 l 467 564 b 364 674 454 631 414 674 b 258 532 303 674 258 614 l 258 204 b 361 -14 258 63 294 -14 b 467 132 418 -14 457 40 l 483 132 l 483 126 b 686 -14 483 46 571 -14 b 914 229 821 -14 914 68 l 914 558 b 461 910 914 781 725 910 b 10 558 197 910 10 781 l 10 228 b 497 -250 10 -122 153 -250 l 497 -242 b 217 6 265 -242 217 -200 l 217 653 b 461 901 217 844 314 901 b 706 653 608 901 706 844 l 706 17 b 685 -6 706 3 697 -6 b 664 17 672 -6 664 3 z m 483 547 l 483 147 b 474 140 481 143 476 140 b 467 153 469 140 467 146 l 467 543 b 474 554 467 550 469 554 b 483 547 476 554 481 553 z "},"&":{"ha":575,"x_min":0,"x_max":0,"o":"m 258 956 b 267 978 258 971 261 978 b 275 956 272 978 275 971 l 275 682 l 525 682 l 525 729 b 263 986 525 893 429 986 b 8 729 97 986 8 896 l 8 703 b 151 488 8 589 29 488 l 151 485 b 8 271 29 485 8 385 l 8 244 b 203 -14 8 61 100 -14 b 351 78 272 -14 338 19 l 354 78 l 354 0 l 525 0 l 525 483 l 567 483 l 567 493 l 525 493 l 525 654 l 275 654 l 275 493 l 274 493 b 258 510 261 493 258 501 z m 275 483 l 275 28 b 267 6 275 13 272 6 b 258 28 261 6 258 13 l 258 467 b 274 483 258 475 261 483 z "},"˜":{"ha":289,"x_min":0,"x_max":0,"o":"m 279 968 l 271 968 l 271 965 b 238 925 271 935 257 925 b 156 949 215 925 185 938 l 151 950 b 78 972 124 961 97 972 b 8 790 33 972 8 907 l 8 788 l 17 788 l 17 789 b 51 832 17 821 31 832 b 131 808 72 832 101 821 l 136 806 b 214 782 164 794 193 782 b 279 965 258 782 279 842 z "},"+":{"ha":594,"x_min":0,"x_max":0,"o":"m 586 476 l 301 476 l 301 760 l 293 760 l 293 476 l 8 476 l 8 468 l 293 468 l 293 182 l 301 182 l 301 468 l 586 468 z "},"-":{"ha":350,"x_min":0,"x_max":0,"o":"m 342 475 l 8 475 l 8 467 l 342 467 z "},"–":{"ha":685,"x_min":0,"x_max":0,"o":"m 676 475 l 10 475 l 10 467 l 676 467 z "},"—":{"ha":1017,"x_min":0,"x_max":0,"o":"m 1008 475 l 8 475 l 8 467 l 1008 467 z "},"_":{"ha":419,"x_min":0,"x_max":0,"o":"m 411 0 l 8 0 l 8 -8 l 411 -8 z "},"−":{"ha":525,"x_min":0,"x_max":0,"o":"m 517 482 l 8 482 l 8 474 l 517 474 z "},"=":{"ha":553,"x_min":0,"x_max":0,"o":"m 544 631 l 8 631 l 8 622 l 544 622 z m 544 319 l 8 319 l 8 311 l 544 311 z "},"•":{"ha":363,"x_min":0,"x_max":0,"o":"m 10 510 b 182 338 10 400 72 338 b 353 510 290 338 353 400 b 182 681 353 618 290 681 b 10 510 72 681 10 618 z "},"¿":{"ha":535,"x_min":0,"x_max":0,"o":"m 156 604 b 275 478 156 522 197 478 b 394 603 353 478 394 522 b 275 731 394 685 351 731 b 156 604 197 731 156 686 z m 525 97 l 275 97 l 275 -261 b 267 -283 275 -276 272 -283 b 258 -261 261 -283 258 -276 l 258 25 b 315 167 258 103 285 132 l 315 168 b 400 404 356 213 400 264 l 400 453 l 164 453 l 164 389 b 103 246 164 324 136 289 l 101 244 b 8 -22 58 189 8 125 l 8 -35 b 263 -292 8 -203 99 -292 b 525 -35 429 -292 525 -199 z "},"¡":{"ha":268,"x_min":0,"x_max":0,"o":"m 14 603 b 133 476 14 521 56 476 b 253 600 211 476 253 521 b 133 728 253 682 210 728 b 14 603 56 728 14 685 z m 8 -279 l 258 -279 l 258 -224 l 138 453 l 129 453 l 8 -224 z "},"¶":{"ha":794,"x_min":0,"x_max":0,"o":"m 786 -215 l 786 1000 l 536 1000 l 536 -215 z m 508 -215 l 508 1000 l 258 1000 b 8 621 85 1000 8 968 b 258 240 8 272 85 240 l 258 -215 z "},"©":{"ha":874,"x_min":0,"x_max":0,"o":"m 10 549 l 10 433 b 431 -14 10 135 122 -14 b 865 425 744 -14 865 140 l 865 549 b 428 986 865 833 736 986 b 10 549 133 986 10 847 z m 183 706 b 438 978 183 908 257 978 b 692 706 618 978 692 908 l 692 269 b 438 -6 692 67 618 -6 b 183 269 257 -6 183 67 z m 429 788 b 438 810 429 803 432 810 b 446 788 443 810 446 803 l 446 501 l 668 501 l 668 576 b 438 818 668 724 633 818 b 207 576 246 818 207 725 l 207 394 b 436 153 207 246 258 153 b 668 394 618 153 668 247 l 668 474 l 446 474 l 446 183 b 438 161 446 168 443 161 b 429 183 432 161 429 168 z "},"¬":{"ha":675,"x_min":0,"x_max":0,"o":"m 8 0 l 667 0 l 667 972 l 8 972 z m 119 903 l 556 903 l 338 543 z m 78 857 l 303 486 l 78 115 z m 372 486 l 597 857 l 597 115 z m 338 429 l 556 69 l 119 69 z "},"®":{"ha":874,"x_min":0,"x_max":0,"o":"m 10 549 l 10 433 b 431 -14 10 135 122 -14 b 865 425 744 -14 865 140 l 865 549 b 428 986 865 833 736 986 b 10 549 133 986 10 847 z m 183 706 b 438 978 183 908 257 978 b 692 706 618 978 692 908 l 692 269 b 438 -6 692 67 618 -6 b 183 269 257 -6 183 67 z m 286 775 l 286 192 l 432 192 l 432 464 l 438 464 b 449 450 446 464 449 463 l 449 311 b 457 192 449 267 450 228 l 604 192 b 596 310 597 228 596 265 l 596 317 b 483 464 596 406 547 464 l 483 467 b 596 615 547 467 596 517 l 596 619 b 439 775 596 725 539 775 z m 432 767 l 438 767 b 449 754 446 767 449 765 l 449 481 b 438 468 449 469 446 468 l 432 468 z "},"™":{"ha":464,"x_min":0,"x_max":0,"o":"m 186 972 l 8 972 l 8 964 l 47 964 l 47 583 l 147 583 l 147 964 l 186 964 z m 203 972 l 203 583 l 211 583 l 211 900 l 214 900 l 231 583 l 336 583 l 353 900 l 356 900 l 356 583 l 456 583 l 456 972 l 350 972 l 331 635 l 328 635 l 310 972 z "},"×":{"ha":475,"x_min":0,"x_max":0,"o":"m 457 700 l 236 481 l 18 699 l 10 690 l 228 472 l 8 253 l 17 244 l 236 464 l 457 243 l 465 251 l 244 472 l 464 692 z "},"¦":{"ha":267,"x_min":0,"x_max":0,"o":"m 258 426 l 258 1000 l 8 1000 l 8 426 z m 258 -215 l 258 354 l 8 354 l 8 -215 z "},"†":{"ha":574,"x_min":0,"x_max":0,"o":"m 163 972 l 163 708 l 10 708 l 10 700 l 163 700 l 163 0 l 413 0 l 413 700 l 565 700 l 565 708 l 413 708 l 413 972 z "},"‡":{"ha":574,"x_min":0,"x_max":0,"o":"m 163 972 l 163 708 l 10 708 l 10 700 l 163 700 l 163 272 l 10 272 l 10 264 l 163 264 l 163 0 l 413 0 l 413 264 l 565 264 l 565 272 l 413 272 l 413 700 l 565 700 l 565 708 l 413 708 l 413 972 z "},"›":{"ha":424,"x_min":0,"x_max":0,"o":"m 10 631 l 403 371 l 403 368 l 10 106 l 15 96 l 415 363 l 415 376 l 15 640 z "},"‹":{"ha":424,"x_min":0,"x_max":0,"o":"m 414 106 l 21 365 l 21 368 l 415 631 l 410 640 l 8 374 l 8 360 l 408 96 z "},"€":{"ha":656,"x_min":0,"x_max":0,"o":"m 314 867 b 356 978 314 969 344 978 b 397 900 367 978 397 972 l 397 500 l 647 500 l 647 729 b 351 986 647 893 539 986 b 64 729 165 986 64 897 l 64 542 l 8 542 l 8 533 l 64 533 l 64 436 l 8 436 l 8 428 l 64 428 l 64 244 b 351 -14 64 76 165 -14 b 647 244 539 -14 647 79 l 647 472 l 397 472 l 397 72 b 356 -6 397 1 367 -6 b 314 97 344 -6 314 4 l 314 428 l 369 428 l 369 436 l 314 436 l 314 533 l 369 533 l 369 542 l 314 542 z "},"ˆ":{"ha":296,"x_min":0,"x_max":0,"o":"m 17 782 l 146 818 l 149 818 l 278 782 l 286 782 l 151 972 l 143 972 l 8 782 z "},"°":{"ha":288,"x_min":0,"x_max":0,"o":"m 8 883 l 8 711 b 142 579 8 633 53 579 b 279 711 232 579 279 635 l 279 883 b 142 1014 279 958 232 1014 b 8 883 53 1014 8 960 z m 135 989 b 144 1006 135 1001 138 1006 b 153 989 150 1006 153 1001 l 153 607 b 144 588 153 593 150 588 b 135 607 138 588 135 593 z "},"'":{"ha":199,"x_min":0,"x_max":0,"o":"m 190 1000 l 10 1000 l 10 986 l 96 592 l 104 592 l 190 986 z "},"\"":{"ha":397,"x_min":0,"x_max":0,"o":"m 190 1000 l 10 1000 l 10 986 l 96 592 l 104 592 l 190 986 z m 388 1000 l 207 1000 l 207 986 l 293 592 l 301 592 l 388 986 z "},"‚":{"ha":240,"x_min":0,"x_max":0,"o":"m 72 -158 l 83 -158 l 232 278 l 10 278 z "},"„":{"ha":479,"x_min":0,"x_max":0,"o":"m 72 -158 l 83 -158 l 232 278 l 10 278 z m 311 -158 l 322 -158 l 471 278 l 249 278 z "},"~":{"ha":472,"x_min":0,"x_max":0,"o":"m 464 568 l 450 568 l 450 565 b 393 521 450 532 428 521 b 257 547 356 521 306 533 l 249 549 b 126 574 203 561 157 574 b 10 379 51 574 10 507 l 10 375 l 24 375 l 24 378 b 81 425 24 413 47 425 b 214 399 117 425 165 413 l 222 396 b 353 369 271 382 318 369 b 464 565 428 369 464 429 z "},"´":{"ha":197,"x_min":0,"x_max":0,"o":"m 49 782 l 189 972 l 8 972 l 40 782 z "},"`":{"ha":197,"x_min":0,"x_max":0,"o":"m 157 782 l 189 972 l 8 972 l 149 782 z "},"¨":{"ha":419,"x_min":0,"x_max":0,"o":"m 8 878 b 107 775 8 814 32 775 b 206 876 182 775 206 814 b 106 979 206 939 181 979 b 8 878 31 979 8 940 z m 214 878 b 313 775 214 814 238 775 b 411 876 388 775 411 814 b 311 979 411 939 386 979 b 214 878 236 979 214 940 z "},"˚":{"ha":256,"x_min":0,"x_max":0,"o":"m 8 878 b 128 775 8 807 54 775 b 247 878 201 775 247 807 b 126 979 247 947 200 979 b 8 878 54 979 8 947 z m 21 878 b 126 968 21 940 63 968 b 235 878 193 968 235 939 b 128 786 235 814 193 786 b 21 878 63 786 21 814 z "},"ˇ":{"ha":296,"x_min":0,"x_max":0,"o":"m 278 972 l 149 936 l 146 936 l 17 972 l 8 972 l 143 782 l 151 782 l 286 972 z "},"˘":{"ha":328,"x_min":0,"x_max":0,"o":"m 8 972 b 164 782 8 833 90 782 b 319 972 238 782 319 833 l 310 972 b 164 893 310 919 246 893 b 17 972 81 893 17 919 z "},"˝":{"ha":311,"x_min":0,"x_max":0,"o":"m 33 782 l 147 972 l 8 972 l 25 782 z m 190 782 l 304 972 l 165 972 l 182 782 z "},"˙":{"ha":214,"x_min":0,"x_max":0,"o":"m 8 878 b 107 775 8 814 32 775 b 206 876 182 775 206 814 b 106 979 206 939 181 979 b 8 878 31 979 8 940 z "},"˛":{"ha":251,"x_min":0,"x_max":0,"o":"m 240 -7 b 10 -161 88 -7 10 -89 b 140 -265 10 -217 53 -265 b 243 -247 169 -265 204 -260 l 243 -240 b 208 -244 231 -243 219 -244 b 110 -140 143 -244 110 -193 b 240 -14 110 -81 153 -18 z "},"¸":{"ha":293,"x_min":0,"x_max":0,"o":"m 50 -65 b 175 -157 136 -65 175 -111 b 58 -254 175 -206 133 -254 b 10 -247 43 -254 26 -251 l 10 -256 b 99 -268 42 -264 71 -268 b 283 -156 210 -268 283 -211 b 60 -56 283 -104 219 -56 l 67 -10 l 58 -10 z "},"B":{"ha":544,"x_min":0,"x_max":0,"o":"m 8 972 l 8 0 l 264 0 b 539 239 435 0 539 89 l 539 257 b 300 496 539 400 442 496 l 300 499 b 525 726 444 499 525 581 l 525 733 b 264 972 525 886 429 972 z m 258 964 l 261 964 b 275 942 275 964 275 961 l 275 524 b 261 501 275 504 275 501 l 258 501 z m 258 493 l 261 493 b 275 471 275 493 275 490 l 275 31 b 261 8 275 11 275 8 l 258 8 z "},"C":{"ha":533,"x_min":0,"x_max":0,"o":"m 258 956 b 267 978 258 972 261 978 b 275 956 272 978 275 972 l 275 500 l 525 500 l 525 729 b 263 986 525 893 429 986 b 8 729 99 986 8 897 l 8 244 b 263 -14 8 76 99 -14 b 525 244 429 -14 525 79 l 525 472 l 275 472 l 275 17 b 267 -6 275 1 272 -6 b 258 17 261 -6 258 1 z "},"A":{"ha":442,"x_min":0,"x_max":0,"o":"m 122 972 l 4 0 l 15 0 l 51 290 l 151 290 l 188 0 l 438 0 l 319 972 z m 51 299 l 100 693 l 103 693 l 151 299 z "},"±":{"ha":525,"x_min":0,"x_max":0,"o":"m 510 476 l 267 476 l 267 704 l 258 704 l 258 476 l 15 476 l 15 468 l 258 468 l 258 238 l 267 238 l 267 468 l 510 468 z m 517 93 l 8 93 l 8 85 l 517 85 z "},"ı":{"ha":256,"x_min":0,"x_max":0,"o":"m 10 708 l 10 0 l 246 0 l 246 708 z "},"·":{"ha":257,"x_min":0,"x_max":0,"o":"m 10 519 b 129 393 10 438 51 393 b 249 517 207 393 249 438 b 129 644 249 599 204 644 b 10 519 51 644 10 601 z "},"ª":{"ha":311,"x_min":0,"x_max":0,"o":"m 161 979 l 161 796 l 96 796 b 10 711 49 796 10 760 l 10 643 b 75 558 10 593 28 558 b 149 599 101 558 128 571 l 161 599 l 161 567 l 303 567 l 303 857 b 154 1000 303 946 246 1000 b 10 857 64 1000 10 946 l 10 810 l 149 810 l 149 979 b 156 992 149 988 151 992 b 161 979 160 992 161 988 z m 161 610 b 154 606 160 607 156 606 b 149 613 151 606 149 608 l 149 781 b 154 788 149 785 151 788 l 161 788 z "},"£":{"ha":547,"x_min":0,"x_max":0,"o":"m 286 963 b 294 978 286 974 289 978 b 303 956 300 978 303 972 l 303 500 l 539 500 l 539 729 b 290 986 539 893 449 986 b 50 807 136 986 50 933 l 50 347 l 8 347 l 8 339 l 50 339 l 50 264 b 8 8 50 163 43 97 l 8 0 l 539 0 l 539 8 l 247 8 b 286 263 276 93 286 169 l 286 339 l 497 339 l 497 347 l 286 347 z "},"º":{"ha":310,"x_min":0,"x_max":0,"o":"m 8 857 l 8 701 b 153 558 8 618 57 558 b 301 701 250 558 301 619 l 301 857 b 153 1000 301 939 250 1000 b 8 857 57 1000 8 940 z m 147 978 b 156 990 147 988 150 990 b 163 978 160 990 163 988 l 163 581 b 156 568 163 572 160 568 b 147 581 150 568 147 572 z "},"¹":{"ha":190,"x_min":0,"x_max":0,"o":"m 182 572 l 182 986 l 10 986 l 10 979 l 46 979 l 47 976 l 47 572 z "},"²":{"ha":303,"x_min":0,"x_max":0,"o":"m 8 819 l 143 819 l 143 969 b 151 992 143 989 146 992 b 160 969 157 992 160 989 l 160 839 b 88 769 160 807 156 799 l 79 765 b 14 661 31 744 14 718 l 14 572 l 294 572 l 294 581 l 149 581 l 149 640 b 203 708 149 692 167 700 l 206 708 b 294 854 233 715 294 743 l 294 875 b 154 1000 294 942 244 1000 b 8 875 61 1000 8 940 z "},"³":{"ha":301,"x_min":0,"x_max":0,"o":"m 160 982 l 160 829 b 121 790 160 799 158 790 l 106 790 l 106 782 l 121 782 b 160 743 158 782 160 774 l 160 590 b 151 581 160 583 157 581 b 142 590 144 581 142 583 l 142 721 l 8 721 l 8 682 b 153 572 8 608 53 572 b 293 681 253 572 293 606 l 293 686 b 193 785 293 750 256 785 l 193 788 b 293 883 256 788 293 818 l 293 889 b 153 1000 293 965 253 1000 b 8 890 51 1000 8 964 l 8 851 l 142 851 l 142 982 b 151 992 142 989 144 992 b 160 982 157 992 160 989 z "},"¼":{"ha":525,"x_min":0,"x_max":0,"o":"m 289 1000 l 281 1000 l 135 0 l 143 0 z m 182 572 l 182 986 l 10 986 l 10 979 l 46 979 l 47 976 l 47 572 z m 383 414 l 383 172 l 376 172 l 376 414 l 243 414 l 243 163 l 383 163 l 383 0 l 518 0 l 518 414 z "},"¾":{"ha":617,"x_min":0,"x_max":0,"o":"m 381 1000 l 372 1000 l 226 0 l 235 0 z m 160 829 b 121 790 160 799 158 790 l 106 790 l 106 782 l 121 782 b 160 743 158 782 160 774 l 160 590 b 151 581 160 583 157 581 b 142 590 144 581 142 583 l 142 721 l 8 721 l 8 682 b 153 572 8 608 53 572 b 293 681 253 572 293 606 l 293 686 b 193 785 293 750 256 785 l 193 788 b 293 883 256 788 293 818 l 293 889 b 153 1000 293 965 253 1000 b 8 890 51 1000 8 964 l 8 851 l 142 851 l 142 982 b 151 992 142 989 144 992 b 160 982 157 992 160 989 z m 475 414 l 475 172 l 468 172 l 468 414 l 333 414 l 333 163 l 475 163 l 475 0 l 608 0 l 608 414 z "},"½":{"ha":522,"x_min":0,"x_max":0,"o":"m 289 1000 l 281 1000 l 135 0 l 143 0 z m 182 572 l 182 986 l 10 986 l 10 979 l 46 979 l 47 976 l 47 572 z m 229 247 l 363 247 l 363 397 b 371 419 363 417 365 419 b 379 397 376 419 379 417 l 379 267 b 307 197 379 233 375 226 l 299 193 b 235 89 250 171 235 146 l 235 0 l 514 0 l 514 8 l 368 8 l 368 68 b 422 136 368 119 386 128 l 425 136 b 514 282 453 143 514 171 l 514 303 b 374 428 514 369 465 428 b 229 303 281 428 229 368 z "},"¯":{"ha":322,"x_min":0,"x_max":0,"o":"m 314 879 l 8 879 l 8 871 l 314 871 z "},"E":{"ha":378,"x_min":0,"x_max":0,"o":"m 369 964 l 369 972 l 8 972 l 8 0 l 369 0 l 369 8 l 258 8 l 258 508 l 369 508 l 369 517 l 258 517 l 258 964 z "},";":{"ha":256,"x_min":0,"x_max":0,"o":"m 8 592 b 128 465 8 510 50 465 b 247 590 206 465 247 510 b 128 718 247 672 204 718 b 8 592 50 718 8 674 z m -12 -133 l 24 -133 l 247 225 l 29 225 z "},"ƒ":{"ha":422,"x_min":0,"x_max":0,"o":"m 93 767 l 93 708 l 38 708 l 38 700 l 93 700 l 93 -186 b 31 -274 93 -251 74 -274 b -6 -271 19 -274 8 -272 l -6 -278 b 132 -292 44 -286 90 -292 b 329 -58 250 -292 329 -243 l 329 700 l 428 700 l 428 708 l 329 708 l 329 894 b 392 982 329 960 349 982 b 428 979 403 982 414 981 l 428 986 b 290 1000 378 994 332 1000 b 93 767 172 1000 93 951 z "},"⁴":{"ha":293,"x_min":0,"x_max":0,"o":"m 150 986 l 150 743 l 143 743 l 143 986 l 8 986 l 8 735 l 150 735 l 150 572 l 285 572 l 285 986 z "},"μ":{"ha":675,"x_min":0,"x_max":0,"o":"m 8 0 l 667 0 l 667 972 l 8 972 z m 119 903 l 556 903 l 338 543 z m 78 857 l 303 486 l 78 115 z m 372 486 l 597 857 l 597 115 z m 338 429 l 556 69 l 119 69 z "},"ð":{"ha":506,"x_min":0,"x_max":0,"o":"m 8 492 l 8 192 b 243 -14 8 72 89 -14 b 497 225 411 -14 497 88 l 497 483 b 272 924 497 683 421 833 l 353 976 l 347 983 l 264 928 b 58 1000 206 961 138 986 l 54 993 b 215 894 124 972 175 938 l 93 813 l 99 806 l 221 888 b 322 636 278 822 308 735 l 321 635 b 204 722 315 692 264 722 b 8 492 115 722 8 654 z m 244 683 b 253 706 244 700 247 706 b 261 683 258 706 261 700 l 261 17 b 253 -6 261 1 258 -6 b 244 17 247 -6 244 1 z "},"ß":{"ha":544,"x_min":0,"x_max":0,"o":"m 8 0 l 258 0 l 258 936 b 272 964 258 963 267 964 l 275 964 b 292 936 281 964 292 963 l 292 544 b 281 501 292 518 292 501 l 275 501 l 275 493 l 281 493 b 292 450 292 493 292 469 l 292 51 b 281 8 292 24 292 8 l 275 8 l 275 0 l 282 0 b 539 239 450 0 539 89 l 539 257 b 383 496 539 400 442 496 l 383 499 b 525 726 444 499 525 581 l 525 733 b 264 972 525 886 431 972 l 244 972 b 8 726 79 972 8 879 z "},"¤":{"ha":675,"x_min":0,"x_max":0,"o":"m 8 0 l 667 0 l 667 972 l 8 972 z m 119 903 l 556 903 l 338 543 z m 78 857 l 303 486 l 78 115 z m 372 486 l 597 857 l 597 115 z m 338 429 l 556 69 l 119 69 z "},"À":{"ha":442,"x_min":0,"x_max":0,"o":"m 257 1028 l 289 1218 l 108 1218 l 249 1028 z m 122 972 l 4 0 l 15 0 l 51 290 l 151 290 l 188 0 l 438 0 l 319 972 z m 51 299 l 100 693 l 103 693 l 151 299 z "},"Á":{"ha":442,"x_min":0,"x_max":0,"o":"m 193 1028 l 333 1218 l 153 1218 l 185 1028 z m 122 972 l 4 0 l 15 0 l 51 290 l 151 290 l 188 0 l 438 0 l 319 972 z m 51 299 l 100 693 l 103 693 l 151 299 z "},"Â":{"ha":442,"x_min":0,"x_max":0,"o":"m 89 1032 l 218 1068 l 221 1068 l 350 1032 l 358 1032 l 224 1222 l 215 1222 l 81 1032 z m 122 972 l 4 0 l 15 0 l 51 290 l 151 290 l 188 0 l 438 0 l 319 972 z m 51 299 l 100 693 l 103 693 l 151 299 z "},"Ã":{"ha":442,"x_min":0,"x_max":0,"o":"m 356 1215 l 347 1215 l 347 1213 b 314 1172 347 1182 333 1172 b 232 1196 292 1172 261 1185 l 228 1197 b 154 1219 200 1210 172 1219 b 85 1038 110 1219 85 1154 l 85 1035 l 93 1035 l 93 1036 b 128 1079 93 1068 107 1079 b 207 1056 149 1079 178 1068 l 211 1053 b 290 1029 240 1042 269 1029 b 356 1213 335 1029 356 1089 z m 122 972 l 4 0 l 15 0 l 50 290 l 151 290 l 188 0 l 438 0 l 319 972 z m 51 299 l 100 693 l 103 693 l 150 299 z "},"Ä":{"ha":442,"x_min":0,"x_max":0,"o":"m 19 1124 b 118 1021 19 1060 43 1021 b 217 1122 193 1021 217 1060 b 117 1225 217 1185 192 1225 b 19 1124 42 1225 19 1186 z m 225 1124 b 324 1021 225 1060 249 1021 b 422 1122 399 1021 422 1060 b 322 1225 422 1185 397 1225 b 225 1124 247 1225 225 1186 z m 122 972 l 4 0 l 15 0 l 51 290 l 151 290 l 188 0 l 438 0 l 319 972 z m 51 299 l 100 693 l 103 693 l 151 299 z "},"Å":{"ha":442,"x_min":0,"x_max":0,"o":"m 101 1124 b 221 1021 101 1053 147 1021 b 340 1124 294 1021 340 1053 b 219 1225 340 1192 293 1225 b 101 1124 147 1225 101 1193 z m 114 1124 b 219 1214 114 1186 156 1214 b 328 1124 286 1214 328 1185 b 221 1032 328 1060 286 1032 b 114 1124 156 1032 114 1060 z m 122 972 l 4 0 l 15 0 l 51 290 l 151 290 l 188 0 l 438 0 l 319 972 z m 51 299 l 100 693 l 103 693 l 151 299 z "},"Æ":{"ha":557,"x_min":0,"x_max":0,"o":"m 549 964 l 549 972 l 188 972 l 4 0 l 15 0 l 69 290 l 188 290 l 188 0 l 549 0 l 549 8 l 438 8 l 438 508 l 549 508 l 549 517 l 438 517 l 438 964 z m 72 299 l 185 897 l 188 897 l 188 299 z "},"Ç":{"ha":533,"x_min":0,"x_max":0,"o":"m 258 956 b 267 978 258 972 261 978 b 275 956 272 978 275 972 l 275 500 l 526 500 l 526 729 b 263 986 526 893 429 986 b 8 729 99 986 8 897 l 8 244 b 264 -14 8 76 99 -15 l 256 -65 b 381 -157 342 -65 381 -111 b 263 -254 381 -206 339 -254 b 215 -247 249 -254 232 -251 l 215 -256 b 304 -268 247 -264 276 -268 b 489 -156 415 -268 489 -211 b 265 -56 489 -104 426 -56 l 272 -14 b 526 244 432 -11 526 82 l 526 472 l 275 472 l 275 17 b 267 -7 275 1 272 -7 b 258 17 261 -7 258 1 z "},"Ð":{"ha":564,"x_min":0,"x_max":0,"o":"m 39 972 l 39 488 l 10 488 l 10 479 l 39 479 l 39 0 l 294 0 b 556 243 460 0 556 79 l 556 729 b 294 972 556 892 460 972 z m 289 964 l 292 964 b 306 942 306 964 306 961 l 306 31 b 292 8 306 11 306 8 l 289 8 l 289 479 l 301 479 l 301 488 l 289 488 z "},"Đ":{"ha":564,"x_min":0,"x_max":0,"o":"m 39 972 l 39 488 l 10 488 l 10 479 l 39 479 l 39 0 l 294 0 b 556 243 460 0 556 79 l 556 729 b 294 972 556 892 460 972 z m 289 964 l 292 964 b 306 942 306 964 306 961 l 306 31 b 292 8 306 11 306 8 l 289 8 l 289 479 l 301 479 l 301 488 l 289 488 z "},"È":{"ha":378,"x_min":0,"x_max":0,"o":"m 225 1028 l 257 1218 l 76 1218 l 217 1028 z m 369 964 l 369 972 l 8 972 l 8 0 l 369 0 l 369 8 l 258 8 l 258 508 l 369 508 l 369 517 l 258 517 l 258 964 z "},"É":{"ha":378,"x_min":0,"x_max":0,"o":"m 161 1028 l 301 1218 l 121 1218 l 153 1028 z m 369 964 l 369 972 l 8 972 l 8 0 l 369 0 l 369 8 l 258 8 l 258 508 l 369 508 l 369 517 l 258 517 l 258 964 z "},"Ê":{"ha":378,"x_min":0,"x_max":0,"o":"m 57 1032 l 186 1068 l 189 1068 l 318 1032 l 326 1032 l 192 1222 l 183 1222 l 49 1032 z m 369 964 l 369 972 l 8 972 l 8 0 l 369 0 l 369 8 l 258 8 l 258 508 l 369 508 l 369 517 l 258 517 l 258 964 z "},"Ë":{"ha":378,"x_min":0,"x_max":0,"o":"m -12 1124 b 86 1021 -12 1060 11 1021 b 185 1122 161 1021 185 1060 b 85 1225 185 1185 160 1225 b -12 1124 10 1225 -12 1186 z m 193 1124 b 292 1021 193 1060 217 1021 b 390 1122 367 1021 390 1060 b 290 1225 390 1185 365 1225 b 193 1124 215 1225 193 1186 z m 369 964 l 369 972 l 8 972 l 8 0 l 369 0 l 369 8 l 258 8 l 258 508 l 369 508 l 369 517 l 258 517 l 258 964 z "},"Ì":{"ha":267,"x_min":0,"x_max":0,"o":"m 169 1028 l 201 1218 l 21 1218 l 161 1028 z m 8 972 l 8 0 l 258 0 l 258 972 z "},"Í":{"ha":267,"x_min":0,"x_max":0,"o":"m 106 1028 l 246 1218 l 65 1218 l 97 1028 z m 8 972 l 8 0 l 258 0 l 258 972 z "},"Î":{"ha":267,"x_min":0,"x_max":0,"o":"m 1 1032 l 131 1068 l 133 1068 l 263 1032 l 271 1032 l 136 1222 l 128 1222 l -7 1032 z m 8 972 l 8 0 l 258 0 l 258 972 z "},"Ï":{"ha":267,"x_min":0,"x_max":0,"o":"m -68 1124 b 31 1021 -68 1060 -44 1021 b 129 1122 106 1021 129 1060 b 29 1225 129 1185 104 1225 b -68 1124 -46 1225 -68 1186 z m 138 1124 b 236 1021 138 1060 161 1021 b 335 1122 311 1021 335 1060 b 235 1225 335 1185 310 1225 b 138 1124 160 1225 138 1186 z m 8 972 l 8 0 l 258 0 l 258 972 z "},"Ł":{"ha":374,"x_min":0,"x_max":0,"o":"m 8 974 l 8 482 l -47 463 l -44 451 l 8 469 l 8 0 l 369 0 l 369 8 l 258 8 l 258 560 l 317 581 l 313 592 l 258 572 l 258 974 z "},"Ñ":{"ha":481,"x_min":0,"x_max":0,"o":"m 375 1215 l 367 1215 l 367 1213 b 333 1172 367 1182 353 1172 b 251 1196 311 1172 281 1185 l 247 1197 b 174 1219 219 1210 192 1219 b 104 1038 129 1219 104 1154 l 104 1035 l 113 1035 l 113 1036 b 147 1079 113 1068 126 1079 b 226 1056 168 1079 197 1068 l 231 1053 b 310 1029 260 1042 289 1029 b 375 1213 354 1029 375 1089 z m 464 972 l 464 69 l 461 69 l 261 972 l 8 972 l 8 0 l 17 0 l 17 932 l 19 932 l 222 0 l 472 0 l 472 972 z "},"Ò":{"ha":533,"x_min":0,"x_max":0,"o":"m 303 1028 l 335 1218 l 154 1218 l 294 1028 z m 8 729 l 8 244 b 263 -14 8 76 99 -14 b 525 244 429 -14 525 79 l 525 729 b 263 986 525 893 429 986 b 8 729 99 986 8 897 z m 258 956 b 267 978 258 972 261 978 b 275 956 272 978 275 972 l 275 17 b 267 -6 275 1 272 -6 b 258 17 261 -6 258 1 z "},"Ó":{"ha":533,"x_min":0,"x_max":0,"o":"m 239 1028 l 379 1218 l 199 1218 l 231 1028 z m 8 729 l 8 244 b 263 -14 8 76 99 -14 b 525 244 429 -14 525 79 l 525 729 b 263 986 525 893 429 986 b 8 729 99 986 8 897 z m 258 956 b 267 978 258 972 261 978 b 275 956 272 978 275 972 l 275 17 b 267 -6 275 1 272 -6 b 258 17 261 -6 258 1 z "},"Ô":{"ha":533,"x_min":0,"x_max":0,"o":"m 135 1032 l 264 1068 l 267 1068 l 396 1032 l 404 1032 l 269 1222 l 261 1222 l 126 1032 z m 8 729 l 8 244 b 263 -14 8 76 99 -14 b 525 244 429 -14 525 79 l 525 729 b 263 986 525 893 429 986 b 8 729 99 986 8 897 z m 258 956 b 267 978 258 972 261 978 b 275 956 272 978 275 972 l 275 17 b 267 -6 275 1 272 -6 b 258 17 261 -6 258 1 z "},"Õ":{"ha":533,"x_min":0,"x_max":0,"o":"m 401 1215 l 393 1215 l 393 1213 b 360 1172 393 1182 379 1172 b 278 1196 338 1172 307 1185 l 274 1197 b 200 1219 246 1210 219 1219 b 132 1038 156 1219 132 1154 l 132 1035 l 140 1035 l 140 1036 b 174 1079 140 1068 153 1079 b 253 1056 194 1079 224 1068 l 257 1053 b 336 1029 286 1042 315 1029 b 401 1213 381 1029 401 1089 z m 8 729 l 8 244 b 263 -14 8 76 99 -14 b 525 244 429 -14 525 79 l 525 729 b 263 986 525 893 429 986 b 8 729 99 986 8 897 z m 258 956 b 267 978 258 972 261 978 b 275 956 272 978 275 972 l 275 17 b 267 -6 275 1 272 -6 b 258 17 261 -6 258 1 z "},"Ö":{"ha":533,"x_min":0,"x_max":0,"o":"m 65 1124 b 164 1021 65 1060 89 1021 b 263 1122 239 1021 263 1060 b 163 1225 263 1185 238 1225 b 65 1124 88 1225 65 1186 z m 271 1124 b 369 1021 271 1060 294 1021 b 468 1122 444 1021 468 1060 b 368 1225 468 1185 443 1225 b 271 1124 293 1225 271 1186 z m 8 729 l 8 244 b 263 -14 8 76 99 -14 b 525 244 429 -14 525 79 l 525 729 b 263 986 525 893 429 986 b 8 729 99 986 8 897 z m 258 956 b 267 978 258 972 261 978 b 275 956 272 978 275 972 l 275 17 b 267 -6 275 1 272 -6 b 258 17 261 -6 258 1 z "},"Ø":{"ha":535,"x_min":0,"x_max":0,"o":"m 8 729 l 8 244 b 54 76 8 175 24 118 l 10 -8 l 19 -14 l 61 67 b 263 -14 104 14 172 -14 b 525 244 429 -14 525 79 l 525 729 b 481 890 525 794 510 849 l 526 981 l 517 986 l 472 900 b 263 986 429 957 357 986 b 8 729 99 986 8 897 z m 258 956 b 267 978 258 972 261 978 b 275 956 272 978 275 972 l 275 513 l 258 479 z m 258 454 l 275 488 l 275 17 b 267 -6 275 1 272 -6 b 258 17 261 -6 258 1 z "},"Œ":{"ha":644,"x_min":0,"x_max":0,"o":"m 636 964 l 636 972 l 263 972 b 8 715 99 972 8 883 l 8 258 b 263 0 8 90 99 0 l 636 0 l 636 8 l 525 8 l 525 508 l 636 508 l 636 517 l 525 517 l 525 964 z m 258 942 b 271 964 258 958 261 964 l 275 964 l 275 8 l 272 8 b 258 31 261 8 258 15 z "},"Š":{"ha":533,"x_min":0,"x_max":0,"o":"m 397 1218 l 268 1182 l 265 1182 l 136 1218 l 128 1218 l 263 1028 l 271 1028 l 406 1218 z m 525 639 l 525 729 b 263 986 525 893 429 986 b 8 729 99 986 8 897 l 8 717 b 132 431 8 554 35 485 l 176 406 b 275 306 272 351 275 346 l 275 15 b 267 -6 275 1 272 -6 b 258 17 261 -6 258 1 l 258 333 l 8 333 l 8 244 b 263 -14 8 76 97 -14 b 525 244 429 -14 525 79 l 525 263 b 406 542 525 425 500 489 l 368 563 b 258 669 261 622 258 629 l 258 956 b 267 978 258 971 261 978 b 275 956 272 978 275 971 l 275 639 z "},"Ù":{"ha":533,"x_min":0,"x_max":0,"o":"m 303 1028 l 335 1218 l 154 1218 l 294 1028 z m 8 972 l 8 244 b 263 -14 8 76 97 -14 b 525 244 431 -14 525 79 l 525 972 l 275 972 l 275 17 b 267 -6 275 1 272 -6 b 258 17 261 -6 258 1 l 258 972 z "},"Ú":{"ha":533,"x_min":0,"x_max":0,"o":"m 239 1028 l 379 1218 l 199 1218 l 231 1028 z m 8 972 l 8 244 b 263 -14 8 76 97 -14 b 525 244 431 -14 525 79 l 525 972 l 275 972 l 275 17 b 267 -6 275 1 272 -6 b 258 17 261 -6 258 1 l 258 972 z "},"Û":{"ha":533,"x_min":0,"x_max":0,"o":"m 135 1032 l 264 1068 l 267 1068 l 396 1032 l 404 1032 l 269 1222 l 261 1222 l 126 1032 z m 8 972 l 8 244 b 263 -14 8 76 97 -14 b 525 244 431 -14 525 79 l 525 972 l 275 972 l 275 17 b 267 -6 275 1 272 -6 b 258 17 261 -6 258 1 l 258 972 z "},"Ü":{"ha":533,"x_min":0,"x_max":0,"o":"m 65 1124 b 164 1021 65 1060 89 1021 b 263 1122 239 1021 263 1060 b 163 1225 263 1185 238 1225 b 65 1124 88 1225 65 1186 z m 271 1124 b 369 1021 271 1060 294 1021 b 468 1122 444 1021 468 1060 b 368 1225 468 1185 443 1225 b 271 1124 293 1225 271 1186 z m 8 972 l 8 244 b 263 -14 8 76 97 -14 b 525 244 431 -14 525 79 l 525 972 l 275 972 l 275 17 b 267 -6 275 1 272 -6 b 258 17 261 -6 258 1 l 258 972 z "},"Ÿ":{"ha":407,"x_min":0,"x_max":0,"o":"m 10 1124 b 108 1021 10 1060 33 1021 b 207 1122 183 1021 207 1060 b 107 1225 207 1185 182 1225 b 10 1124 32 1225 10 1186 z m 215 1124 b 314 1021 215 1060 239 1021 b 413 1122 389 1021 413 1060 b 313 1225 413 1185 388 1225 b 215 1124 238 1225 215 1186 z m 4 972 l 78 397 l 78 0 l 329 0 l 329 397 l 403 972 l 392 972 l 326 461 l 324 461 l 253 972 z "},"Ý":{"ha":407,"x_min":0,"x_max":0,"o":"m 183 1028 l 324 1218 l 143 1218 l 175 1028 z m 4 972 l 78 397 l 78 0 l 329 0 l 329 397 l 403 972 l 392 972 l 326 461 l 324 461 l 253 972 z "},"Ž":{"ha":468,"x_min":0,"x_max":0,"o":"m 365 1218 l 236 1182 l 233 1182 l 104 1218 l 96 1218 l 231 1028 l 239 1028 l 374 1218 z m 18 972 l 18 964 l 197 964 l 199 961 l 4 8 l 4 0 l 464 0 l 464 8 l 257 8 l 256 11 l 450 964 l 450 972 z "},"ﬁ":{"ha":646,"x_min":0,"x_max":0,"o":"m 56 767 l 56 708 l 0 708 l 0 700 l 56 700 l 56 0 l 292 0 l 292 700 l 390 700 l 390 708 l 292 708 l 292 894 b 354 982 292 960 311 982 b 390 979 365 982 376 981 l 390 986 b 253 1000 340 994 294 1000 b 56 767 135 1000 56 951 z m 392 861 b 518 749 392 783 440 749 b 644 861 596 749 644 783 b 517 974 644 938 594 974 b 392 861 440 974 392 939 z m 400 708 l 400 0 l 636 0 l 636 708 z "},"ﬂ":{"ha":651,"x_min":0,"x_max":0,"o":"m 56 767 l 56 708 l 0 708 l 0 700 l 56 700 l 56 0 l 292 0 l 292 700 l 390 700 l 390 708 l 292 708 l 292 894 b 354 982 292 960 311 982 b 390 979 365 982 376 981 l 390 986 b 253 1000 340 994 294 1000 b 56 767 135 1000 56 951 z m 407 0 l 643 0 l 643 1000 l 407 1000 z "},"à":{"ha":506,"x_min":0,"x_max":0,"o":"m 286 764 l 318 954 l 138 954 l 278 764 z m 261 692 l 261 382 l 153 382 b 8 242 72 382 8 321 l 8 126 b 135 -14 8 44 61 -14 b 258 61 181 -14 221 10 l 261 61 l 261 0 l 497 0 l 497 483 b 250 722 497 631 401 722 b 8 483 99 722 8 632 l 8 404 l 244 404 l 244 692 b 253 714 244 707 247 714 b 261 692 258 714 261 707 z m 261 75 b 251 68 258 71 254 68 b 244 79 247 68 244 72 l 244 363 b 251 374 244 369 247 374 l 261 374 z "},"á":{"ha":506,"x_min":0,"x_max":0,"o":"m 222 764 l 363 954 l 182 954 l 214 764 z m 261 692 l 261 382 l 153 382 b 8 242 72 382 8 321 l 8 126 b 135 -14 8 44 61 -14 b 258 61 181 -14 221 10 l 261 61 l 261 0 l 497 0 l 497 483 b 250 722 497 631 401 722 b 8 483 99 722 8 632 l 8 404 l 244 404 l 244 692 b 253 714 244 707 247 714 b 261 692 258 714 261 707 z m 261 75 b 251 68 258 71 254 68 b 244 79 247 68 244 72 l 244 363 b 251 374 244 369 247 374 l 261 374 z "},"â":{"ha":506,"x_min":0,"x_max":0,"o":"m 118 768 l 247 804 l 250 804 l 379 768 l 388 768 l 253 958 l 244 958 l 110 768 z m 261 692 l 261 382 l 153 382 b 8 242 72 382 8 321 l 8 126 b 135 -14 8 44 61 -14 b 258 61 181 -14 221 10 l 261 61 l 261 0 l 497 0 l 497 483 b 250 722 497 631 401 722 b 8 483 99 722 8 632 l 8 404 l 244 404 l 244 692 b 253 714 244 707 247 714 b 261 692 258 714 261 707 z m 261 75 b 251 68 258 71 254 68 b 244 79 247 68 244 72 l 244 363 b 251 374 244 369 247 374 l 261 374 z "},"ã":{"ha":506,"x_min":0,"x_max":0,"o":"m 385 951 l 376 951 l 376 949 b 343 908 376 918 363 908 b 261 932 321 908 290 921 l 257 933 b 183 956 229 944 201 956 b 115 774 139 956 115 890 l 115 771 l 124 771 l 124 772 b 157 815 124 804 136 815 b 236 792 178 815 207 803 l 240 789 b 319 765 269 776 299 765 b 385 949 364 765 385 825 z m 261 692 l 261 382 l 153 382 b 8 242 72 382 8 321 l 8 126 b 135 -14 8 44 61 -14 b 258 61 181 -14 221 10 l 261 61 l 261 0 l 497 0 l 497 483 b 250 722 497 631 401 722 b 8 483 99 722 8 632 l 8 404 l 244 404 l 244 692 b 253 714 244 707 247 714 b 261 692 258 714 261 707 z m 261 75 b 251 68 258 71 254 68 b 244 79 247 68 244 72 l 244 363 b 251 374 244 369 247 374 l 261 374 z "},"ä":{"ha":506,"x_min":0,"x_max":0,"o":"m 49 860 b 147 757 49 796 72 757 b 246 858 222 757 246 796 b 146 961 246 921 221 961 b 49 860 71 961 49 922 z m 254 860 b 353 757 254 796 278 757 b 451 858 428 757 451 796 b 351 961 451 921 426 961 b 254 860 276 961 254 922 z m 261 692 l 261 382 l 153 382 b 8 242 72 382 8 321 l 8 126 b 135 -14 8 44 61 -14 b 258 61 181 -14 221 10 l 261 61 l 261 0 l 497 0 l 497 483 b 250 722 497 631 401 722 b 8 483 99 722 8 632 l 8 404 l 244 404 l 244 692 b 253 714 244 707 247 714 b 261 692 258 714 261 707 z m 261 75 b 251 68 258 71 254 68 b 244 79 247 68 244 72 l 244 363 b 251 374 244 369 247 374 l 261 374 z "},"å":{"ha":506,"x_min":0,"x_max":0,"o":"m 131 860 b 250 757 131 789 176 757 b 369 860 324 757 369 789 b 249 961 369 929 322 961 b 131 860 176 961 131 929 z m 143 860 b 249 950 143 922 185 950 b 357 860 314 950 357 921 b 250 768 357 796 315 768 b 143 860 185 768 143 796 z m 261 692 l 261 382 l 153 382 b 8 242 72 382 8 321 l 8 126 b 135 -14 8 44 61 -14 b 258 61 181 -14 221 10 l 261 61 l 261 0 l 497 0 l 497 483 b 250 722 497 631 401 722 b 8 483 99 722 8 632 l 8 404 l 244 404 l 244 692 b 253 714 244 707 247 714 b 261 692 258 714 261 707 z m 261 75 b 251 68 258 71 254 68 b 244 79 247 68 244 72 l 244 363 b 251 374 244 369 247 374 l 261 374 z "},"æ":{"ha":760,"x_min":0,"x_max":0,"o":"m 261 692 l 261 382 l 153 382 b 8 242 72 382 8 321 l 8 126 b 135 -14 8 44 61 -14 b 279 101 190 -14 239 21 l 282 101 b 503 -14 317 28 400 -14 b 750 225 654 -14 750 78 l 750 294 l 514 294 l 514 17 b 506 -6 514 1 511 -6 b 497 17 500 -6 497 1 l 497 354 l 750 354 l 750 483 b 503 722 750 631 654 722 b 385 696 454 722 418 713 l 368 696 b 250 722 333 713 299 722 b 8 483 99 722 8 632 l 8 404 l 244 404 l 244 692 b 253 714 244 707 247 714 b 261 692 258 714 261 707 z m 497 692 b 506 714 497 707 500 714 b 514 692 511 714 514 707 l 514 363 l 497 363 z m 261 111 b 251 76 261 79 254 76 b 244 88 247 76 244 81 l 244 363 b 251 374 244 369 247 374 l 261 374 z "},"ç":{"ha":506,"x_min":0,"x_max":0,"o":"m 244 692 b 253 714 244 707 247 714 b 261 692 258 714 261 707 l 261 414 l 497 414 l 497 483 b 250 722 497 631 401 722 b 8 483 99 722 8 632 l 8 225 b 250 -14 8 76 99 -14 l 242 -65 b 367 -157 328 -65 367 -111 b 249 -254 367 -206 325 -254 b 201 -247 235 -254 218 -251 l 201 -256 b 290 -268 233 -264 263 -268 b 475 -156 401 -268 475 -211 b 251 -56 475 -104 411 -56 l 258 -14 b 497 225 404 -11 497 79 l 497 294 l 261 294 l 261 17 b 253 -7 261 1 258 -7 b 244 17 247 -7 244 1 z "},"đ":{"ha":506,"x_min":0,"x_max":0,"o":"m 497 0 l 497 853 l 539 853 l 539 861 l 497 861 l 497 1000 l 261 1000 l 261 861 l 192 861 l 192 853 l 261 853 l 261 674 l 258 675 b 135 722 228 706 182 722 b 8 560 61 722 8 676 l 8 199 b 121 -14 8 42 57 -14 b 258 49 167 -14 222 14 l 261 49 l 261 0 z m 261 61 b 251 54 258 57 254 54 b 244 67 247 54 244 60 l 244 657 b 251 668 244 664 247 668 b 261 661 254 668 258 665 z "},"è":{"ha":506,"x_min":0,"x_max":0,"o":"m 286 764 l 318 954 l 138 954 l 278 764 z m 261 294 l 261 17 b 253 -6 261 1 258 -6 b 244 17 247 -6 244 1 l 244 354 l 497 354 l 497 483 b 250 722 497 631 401 722 b 8 483 99 722 8 632 l 8 225 b 250 -14 8 76 99 -14 b 497 225 401 -14 497 78 l 497 294 z m 244 692 b 253 714 244 707 247 714 b 261 692 258 714 261 707 l 261 363 l 244 363 z "},"é":{"ha":506,"x_min":0,"x_max":0,"o":"m 222 764 l 363 954 l 182 954 l 214 764 z m 261 294 l 261 17 b 253 -6 261 1 258 -6 b 244 17 247 -6 244 1 l 244 354 l 497 354 l 497 483 b 250 722 497 631 401 722 b 8 483 99 722 8 632 l 8 225 b 250 -14 8 76 99 -14 b 497 225 401 -14 497 78 l 497 294 z m 244 692 b 253 714 244 707 247 714 b 261 692 258 714 261 707 l 261 363 l 244 363 z "},"ê":{"ha":506,"x_min":0,"x_max":0,"o":"m 118 768 l 247 804 l 250 804 l 379 768 l 388 768 l 253 958 l 244 958 l 110 768 z m 261 294 l 261 17 b 253 -6 261 1 258 -6 b 244 17 247 -6 244 1 l 244 354 l 497 354 l 497 483 b 250 722 497 631 401 722 b 8 483 99 722 8 632 l 8 225 b 250 -14 8 76 99 -14 b 497 225 401 -14 497 78 l 497 294 z m 244 692 b 253 714 244 707 247 714 b 261 692 258 714 261 707 l 261 363 l 244 363 z "},"ë":{"ha":506,"x_min":0,"x_max":0,"o":"m 49 860 b 147 757 49 796 72 757 b 246 858 222 757 246 796 b 146 961 246 921 221 961 b 49 860 71 961 49 922 z m 254 860 b 353 757 254 796 278 757 b 451 858 428 757 451 796 b 351 961 451 921 426 961 b 254 860 276 961 254 922 z m 261 294 l 261 17 b 253 -6 261 1 258 -6 b 244 17 247 -6 244 1 l 244 354 l 497 354 l 497 483 b 250 722 497 631 401 722 b 8 483 99 722 8 632 l 8 225 b 250 -14 8 76 99 -14 b 497 225 401 -14 497 78 l 497 294 z m 244 692 b 253 714 244 707 247 714 b 261 692 258 714 261 707 l 261 363 l 244 363 z "},"ì":{"ha":256,"x_min":0,"x_max":0,"o":"m 164 764 l 196 954 l 15 954 l 156 764 z m 10 708 l 10 0 l 246 0 l 246 708 z "},"í":{"ha":256,"x_min":0,"x_max":0,"o":"m 100 764 l 240 954 l 60 954 l 92 764 z m 10 708 l 10 0 l 246 0 l 246 708 z "},"î":{"ha":256,"x_min":0,"x_max":0,"o":"m -4 768 l 125 804 l 128 804 l 257 768 l 265 768 l 131 958 l 122 958 l -12 768 z m 10 708 l 10 0 l 246 0 l 246 708 z "},"ï":{"ha":419,"x_min":0,"x_max":0,"o":"m 8 860 b 107 757 8 796 32 757 b 206 858 182 757 206 796 b 106 961 206 921 181 961 b 8 860 31 961 8 922 z m 214 860 b 313 757 214 796 238 757 b 411 858 388 757 411 796 b 311 961 411 921 386 961 b 214 860 236 961 214 922 z m 92 708 l 92 0 l 328 0 l 328 708 z "},"ł":{"ha":253,"x_min":0,"x_max":0,"o":"m 8 0 l 244 0 l 244 536 l 308 558 l 304 569 l 244 549 l 244 1001 l 8 1001 l 8 464 l -56 440 l -53 429 l 8 451 z "},"ñ":{"ha":506,"x_min":0,"x_max":0,"o":"m 389 951 l 381 951 l 381 949 b 347 908 381 918 367 908 b 265 932 325 908 294 921 l 261 933 b 188 956 233 944 206 956 b 119 774 143 956 119 890 l 119 771 l 128 771 l 128 772 b 161 815 128 804 140 815 b 240 792 182 815 211 803 l 244 789 b 324 765 274 776 303 765 b 389 949 368 765 389 825 z m 8 0 l 244 0 l 244 633 b 254 640 247 638 251 640 b 261 629 258 640 261 636 l 261 0 l 497 0 l 497 540 b 371 722 497 671 439 722 b 247 647 324 722 288 699 l 244 647 l 244 708 l 8 708 z "},"ò":{"ha":506,"x_min":0,"x_max":0,"o":"m 286 764 l 318 954 l 138 954 l 278 764 z m 8 483 l 8 225 b 250 -14 8 86 89 -14 b 497 225 411 -14 497 88 l 497 483 b 250 722 497 621 411 722 b 8 483 89 722 8 622 z m 244 692 b 253 714 244 708 247 714 b 261 692 258 714 261 708 l 261 17 b 253 -6 261 1 258 -6 b 244 17 247 -6 244 1 z "},"ó":{"ha":506,"x_min":0,"x_max":0,"o":"m 222 764 l 363 954 l 182 954 l 214 764 z m 8 483 l 8 225 b 250 -14 8 86 89 -14 b 497 225 411 -14 497 88 l 497 483 b 250 722 497 621 411 722 b 8 483 89 722 8 622 z m 244 692 b 253 714 244 708 247 714 b 261 692 258 714 261 708 l 261 17 b 253 -6 261 1 258 -6 b 244 17 247 -6 244 1 z "},"ô":{"ha":506,"x_min":0,"x_max":0,"o":"m 118 768 l 247 804 l 250 804 l 379 768 l 388 768 l 253 958 l 244 958 l 110 768 z m 8 483 l 8 225 b 250 -14 8 86 89 -14 b 497 225 411 -14 497 88 l 497 483 b 250 722 497 621 411 722 b 8 483 89 722 8 622 z m 244 692 b 253 714 244 708 247 714 b 261 692 258 714 261 708 l 261 17 b 253 -6 261 1 258 -6 b 244 17 247 -6 244 1 z "},"õ":{"ha":506,"x_min":0,"x_max":0,"o":"m 385 951 l 376 951 l 376 949 b 343 908 376 918 363 908 b 261 932 321 908 290 921 l 257 933 b 183 956 229 944 201 956 b 115 774 139 956 115 890 l 115 771 l 124 771 l 124 772 b 157 815 124 804 136 815 b 236 792 178 815 207 803 l 240 789 b 319 765 269 776 299 765 b 385 949 364 765 385 825 z m 8 483 l 8 225 b 250 -14 8 86 89 -14 b 497 225 411 -14 497 88 l 497 483 b 250 722 497 621 411 722 b 8 483 89 722 8 622 z m 244 692 b 253 714 244 708 247 714 b 261 692 258 714 261 708 l 261 17 b 253 -6 261 1 258 -6 b 244 17 247 -6 244 1 z "},"ö":{"ha":506,"x_min":0,"x_max":0,"o":"m 49 860 b 147 757 49 796 72 757 b 246 858 222 757 246 796 b 146 961 246 921 221 961 b 49 860 71 961 49 922 z m 254 860 b 353 757 254 796 278 757 b 451 858 428 757 451 796 b 351 961 451 921 426 961 b 254 860 276 961 254 922 z m 8 483 l 8 225 b 250 -14 8 86 89 -14 b 497 225 411 -14 497 88 l 497 483 b 250 722 497 621 411 722 b 8 483 89 722 8 622 z m 244 692 b 253 714 244 708 247 714 b 261 692 258 714 261 708 l 261 17 b 253 -6 261 1 258 -6 b 244 17 247 -6 244 1 z "},"ø":{"ha":506,"x_min":0,"x_max":0,"o":"m 8 483 l 8 225 b 58 65 8 163 25 107 l 10 -8 l 19 -14 l 65 57 b 250 -14 106 13 167 -14 b 497 225 411 -14 497 88 l 497 483 b 447 639 497 544 481 599 l 497 717 l 488 722 l 439 649 b 250 722 399 694 335 722 b 8 483 89 722 8 622 z m 244 692 b 253 714 244 708 247 714 b 261 692 258 714 261 708 l 261 376 l 244 350 z m 244 331 l 261 356 l 261 17 b 253 -6 261 1 258 -6 b 244 17 247 -6 244 1 z "},"œ":{"ha":758,"x_min":0,"x_max":0,"o":"m 8 483 l 8 225 b 250 -14 8 86 89 -14 b 375 13 300 -14 342 -4 l 378 13 b 503 -14 413 -4 454 -14 b 750 225 654 -14 750 78 l 750 294 l 514 294 l 514 17 b 506 -6 514 1 511 -6 b 497 17 500 -6 497 1 l 497 354 l 750 354 l 750 483 b 503 722 750 631 654 722 b 378 696 454 722 413 713 l 375 696 b 250 722 342 713 300 722 b 8 483 89 722 8 622 z m 244 692 b 253 714 244 708 247 714 b 261 692 258 714 261 708 l 261 17 b 253 -6 261 1 258 -6 b 244 17 247 -6 244 1 z m 497 692 b 506 714 497 707 500 714 b 514 692 511 714 514 707 l 514 363 l 497 363 z "},"Þ":{"ha":533,"x_min":0,"x_max":0,"o":"m 8 972 l 8 0 l 258 0 l 258 196 l 261 196 b 525 478 440 196 525 264 l 525 481 b 264 778 525 686 431 778 l 258 778 l 258 972 z m 258 769 l 261 769 b 275 750 275 769 275 767 l 275 226 b 261 204 275 207 275 204 l 258 204 z "},"š":{"ha":506,"x_min":0,"x_max":0,"o":"m 381 954 l 251 918 l 249 918 l 119 954 l 111 954 l 246 764 l 254 764 l 389 954 z m 497 467 l 497 496 b 251 722 497 621 410 722 b 10 511 93 722 10 622 l 10 489 b 118 311 10 394 39 347 l 218 265 b 260 207 256 249 260 242 l 260 21 b 251 -4 260 6 257 -4 b 244 21 246 -4 244 4 l 244 242 l 8 242 l 8 214 b 249 -14 8 86 90 -14 b 496 197 408 -14 496 88 l 496 219 b 381 399 496 314 458 360 l 282 447 b 246 496 250 463 246 469 l 246 689 b 254 714 246 707 249 714 b 261 689 260 714 261 707 l 261 467 z "},"ù":{"ha":506,"x_min":0,"x_max":0,"o":"m 286 764 l 318 954 l 138 954 l 278 764 z m 497 708 l 261 708 l 261 75 b 251 68 258 71 254 68 b 244 79 247 68 244 72 l 244 708 l 8 708 l 8 168 b 135 -14 8 38 67 -14 b 260 61 182 -14 218 10 l 261 61 l 261 0 l 497 0 z "},"ú":{"ha":506,"x_min":0,"x_max":0,"o":"m 222 764 l 363 954 l 182 954 l 214 764 z m 497 708 l 261 708 l 261 75 b 251 68 258 71 254 68 b 244 79 247 68 244 72 l 244 708 l 8 708 l 8 168 b 135 -14 8 38 67 -14 b 260 61 182 -14 218 10 l 261 61 l 261 0 l 497 0 z "},"û":{"ha":506,"x_min":0,"x_max":0,"o":"m 118 768 l 247 804 l 250 804 l 379 768 l 388 768 l 253 958 l 244 958 l 110 768 z m 497 708 l 261 708 l 261 75 b 251 68 258 71 254 68 b 244 79 247 68 244 72 l 244 708 l 8 708 l 8 168 b 135 -14 8 38 67 -14 b 260 61 182 -14 218 10 l 261 61 l 261 0 l 497 0 z "},"ü":{"ha":506,"x_min":0,"x_max":0,"o":"m 49 860 b 147 757 49 796 72 757 b 246 858 222 757 246 796 b 146 961 246 921 221 961 b 49 860 71 961 49 922 z m 254 860 b 353 757 254 796 278 757 b 451 858 428 757 451 796 b 351 961 451 921 426 961 b 254 860 276 961 254 922 z m 497 708 l 261 708 l 261 75 b 251 68 258 71 254 68 b 244 79 247 68 244 72 l 244 708 l 8 708 l 8 168 b 135 -14 8 38 67 -14 b 260 61 182 -14 218 10 l 261 61 l 261 0 l 497 0 z "},"ý":{"ha":506,"x_min":0,"x_max":0,"o":"m 222 764 l 363 954 l 182 954 l 214 764 z m 497 708 l 261 708 l 261 75 b 251 68 258 71 254 68 b 244 79 247 68 244 72 l 244 708 l 8 708 l 8 168 b 135 -14 8 38 67 -14 b 260 61 182 -14 218 10 l 261 61 l 261 -258 b 253 -283 261 -276 258 -283 b 244 -261 247 -283 244 -276 l 244 -36 l 8 -36 l 8 -81 b 254 -292 8 -214 99 -292 b 497 -81 410 -292 497 -215 z "},"ÿ":{"ha":506,"x_min":0,"x_max":0,"o":"m 49 860 b 147 757 49 796 72 757 b 246 858 222 757 246 796 b 146 961 246 921 221 961 b 49 860 71 961 49 922 z m 254 860 b 353 757 254 796 278 757 b 451 858 428 757 451 796 b 351 961 451 921 426 961 b 254 860 276 961 254 922 z m 497 708 l 261 708 l 261 75 b 251 68 258 71 254 68 b 244 79 247 68 244 72 l 244 708 l 8 708 l 8 168 b 135 -14 8 38 67 -14 b 260 61 182 -14 218 10 l 261 61 l 261 -258 b 253 -283 261 -276 258 -283 b 244 -261 247 -283 244 -276 l 244 -36 l 8 -36 l 8 -81 b 254 -292 8 -214 99 -292 b 497 -81 410 -292 497 -215 z "},"ž":{"ha":449,"x_min":0,"x_max":0,"o":"m 356 953 l 226 917 l 224 917 l 94 953 l 86 953 l 221 763 l 229 763 l 364 953 z m 443 0 l 443 8 l 247 8 l 246 11 l 425 700 l 425 708 l 25 708 l 25 700 l 185 700 l 186 697 l 6 8 l 6 0 z "},"þ":{"ha":506,"x_min":0,"x_max":0,"o":"m 8 -292 l 244 -292 l 244 61 l 247 61 b 368 -14 283 11 324 -14 b 497 178 447 -14 497 60 l 497 540 b 371 722 497 654 450 722 b 247 647 325 722 285 699 l 244 647 l 244 1000 l 8 1000 z m 244 633 b 254 640 247 638 251 640 b 261 629 258 640 261 636 l 261 82 b 254 68 261 74 258 68 b 244 75 251 68 247 71 z "},"Ā":{"ha":442,"x_min":0,"x_max":0,"o":"m 374 1125 l 68 1125 l 68 1117 l 374 1117 z m 122 972 l 4 0 l 15 0 l 51 290 l 151 290 l 188 0 l 438 0 l 319 972 z m 51 299 l 100 693 l 103 693 l 151 299 z "},"ā":{"ha":506,"x_min":0,"x_max":0,"o":"m 403 861 l 97 861 l 97 853 l 403 853 z m 261 692 l 261 382 l 153 382 b 8 242 72 382 8 321 l 8 126 b 135 -14 8 44 61 -14 b 258 61 181 -14 221 10 l 261 61 l 261 0 l 497 0 l 497 483 b 250 722 497 631 401 722 b 8 483 99 722 8 632 l 8 404 l 244 404 l 244 692 b 253 714 244 707 247 714 b 261 692 258 714 261 707 z m 261 75 b 251 68 258 71 254 68 b 244 79 247 68 244 72 l 244 363 b 251 374 244 369 247 374 l 261 374 z "},"Ă":{"ha":442,"x_min":0,"x_max":0,"o":"m 65 1218 b 221 1028 65 1079 147 1028 b 376 1218 294 1028 376 1079 l 367 1218 b 221 1139 367 1165 303 1139 b 74 1218 138 1139 74 1165 z m 122 972 l 4 0 l 15 0 l 51 290 l 151 290 l 188 0 l 438 0 l 319 972 z m 51 299 l 100 693 l 103 693 l 151 299 z "},"ă":{"ha":506,"x_min":0,"x_max":0,"o":"m 94 954 b 250 764 94 815 176 764 b 406 954 324 764 406 815 l 396 954 b 250 875 396 901 332 875 b 103 954 167 875 103 901 z m 261 692 l 261 382 l 153 382 b 8 242 72 382 8 321 l 8 126 b 135 -14 8 44 61 -14 b 258 61 181 -14 221 10 l 261 61 l 261 0 l 497 0 l 497 483 b 250 722 497 631 401 722 b 8 483 99 722 8 632 l 8 404 l 244 404 l 244 692 b 253 714 244 707 247 714 b 261 692 258 714 261 707 z m 261 75 b 251 68 258 71 254 68 b 244 79 247 68 244 72 l 244 363 b 251 374 244 369 247 374 l 261 374 z "},"Ą":{"ha":442,"x_min":0,"x_max":0,"o":"m 124 972 l 6 0 l 17 0 l 51 290 l 153 290 l 188 0 l 363 0 b 204 -147 258 -21 204 -87 b 335 -251 204 -203 247 -251 b 438 -233 364 -251 399 -246 l 438 -226 b 403 -231 425 -229 414 -231 b 306 -126 339 -231 306 -179 b 435 0 306 -67 349 -4 l 439 0 l 319 972 z m 53 299 l 101 693 l 104 693 l 151 299 z "},"ą":{"ha":506,"x_min":0,"x_max":0,"o":"m 261 692 l 261 382 l 153 382 b 8 242 72 382 8 321 l 8 126 b 135 -14 8 44 61 -14 b 258 61 181 -14 221 10 l 261 61 l 261 0 l 421 0 b 264 -147 317 -21 264 -87 b 394 -251 264 -203 307 -251 b 496 -233 424 -251 457 -246 l 496 -226 b 463 -231 485 -229 472 -231 b 364 -126 397 -231 364 -179 b 493 0 364 -67 407 -4 l 497 0 l 497 483 b 250 722 497 631 400 722 b 8 483 99 722 8 632 l 8 404 l 244 404 l 244 692 b 253 714 244 707 247 714 b 261 692 258 714 261 707 z m 261 75 b 251 68 258 71 254 68 b 244 79 247 68 244 72 l 244 363 b 251 374 244 369 247 374 l 261 374 z "},"Ć":{"ha":533,"x_min":0,"x_max":0,"o":"m 239 1028 l 379 1218 l 199 1218 l 231 1028 z m 258 956 b 267 978 258 972 261 978 b 275 956 272 978 275 972 l 275 500 l 525 500 l 525 729 b 263 986 525 893 429 986 b 8 729 99 986 8 897 l 8 244 b 263 -14 8 76 99 -14 b 525 244 429 -14 525 79 l 525 472 l 275 472 l 275 17 b 267 -6 275 1 272 -6 b 258 17 261 -6 258 1 z "},"ć":{"ha":506,"x_min":0,"x_max":0,"o":"m 222 764 l 363 954 l 182 954 l 214 764 z m 244 692 b 253 714 244 707 247 714 b 261 692 258 714 261 707 l 261 414 l 497 414 l 497 483 b 250 722 497 631 401 722 b 8 483 99 722 8 632 l 8 225 b 250 -14 8 76 99 -14 b 497 225 401 -14 497 78 l 497 294 l 261 294 l 261 17 b 253 -6 261 1 258 -6 b 244 17 247 -6 244 1 z "},"Ĉ":{"ha":533,"x_min":0,"x_max":0,"o":"m 135 1032 l 264 1068 l 267 1068 l 396 1032 l 404 1032 l 269 1222 l 261 1222 l 126 1032 z m 258 956 b 267 978 258 972 261 978 b 275 956 272 978 275 972 l 275 500 l 525 500 l 525 729 b 263 986 525 893 429 986 b 8 729 99 986 8 897 l 8 244 b 263 -14 8 76 99 -14 b 525 244 429 -14 525 79 l 525 472 l 275 472 l 275 17 b 267 -6 275 1 272 -6 b 258 17 261 -6 258 1 z "},"ĉ":{"ha":506,"x_min":0,"x_max":0,"o":"m 118 768 l 247 804 l 250 804 l 379 768 l 388 768 l 253 958 l 244 958 l 110 768 z m 244 692 b 253 714 244 707 247 714 b 261 692 258 714 261 707 l 261 414 l 497 414 l 497 483 b 250 722 497 631 401 722 b 8 483 99 722 8 632 l 8 225 b 250 -14 8 76 99 -14 b 497 225 401 -14 497 78 l 497 294 l 261 294 l 261 17 b 253 -6 261 1 258 -6 b 244 17 247 -6 244 1 z "},"Ċ":{"ha":533,"x_min":0,"x_max":0,"o":"m 168 1124 b 267 1021 168 1060 192 1021 b 365 1122 342 1021 365 1060 b 265 1225 365 1185 340 1225 b 168 1124 190 1225 168 1186 z m 258 956 b 267 978 258 972 261 978 b 275 956 272 978 275 972 l 275 500 l 525 500 l 525 729 b 263 986 525 893 429 986 b 8 729 99 986 8 897 l 8 244 b 263 -14 8 76 99 -14 b 525 244 429 -14 525 79 l 525 472 l 275 472 l 275 17 b 267 -6 275 1 272 -6 b 258 17 261 -6 258 1 z "},"ċ":{"ha":506,"x_min":0,"x_max":0,"o":"m 151 860 b 250 757 151 796 175 757 b 349 858 325 757 349 796 b 249 961 349 921 324 961 b 151 860 174 961 151 922 z m 244 692 b 253 714 244 707 247 714 b 261 692 258 714 261 707 l 261 414 l 497 414 l 497 483 b 250 722 497 631 401 722 b 8 483 99 722 8 632 l 8 225 b 250 -14 8 76 99 -14 b 497 225 401 -14 497 78 l 497 294 l 261 294 l 261 17 b 253 -6 261 1 258 -6 b 244 17 247 -6 244 1 z "},"Č":{"ha":533,"x_min":0,"x_max":0,"o":"m 397 1218 l 268 1182 l 265 1182 l 136 1218 l 128 1218 l 263 1028 l 271 1028 l 406 1218 z m 258 956 b 267 978 258 972 261 978 b 275 956 272 978 275 972 l 275 500 l 525 500 l 525 729 b 263 986 525 893 429 986 b 8 729 99 986 8 897 l 8 244 b 263 -14 8 76 99 -14 b 525 244 429 -14 525 79 l 525 472 l 275 472 l 275 17 b 267 -6 275 1 272 -6 b 258 17 261 -6 258 1 z "},"č":{"ha":506,"x_min":0,"x_max":0,"o":"m 381 954 l 251 918 l 249 918 l 119 954 l 111 954 l 246 764 l 254 764 l 389 954 z m 244 692 b 253 714 244 707 247 714 b 261 692 258 714 261 707 l 261 414 l 497 414 l 497 483 b 250 722 497 631 401 722 b 8 483 99 722 8 632 l 8 225 b 250 -14 8 76 99 -14 b 497 225 401 -14 497 78 l 497 294 l 261 294 l 261 17 b 253 -6 261 1 258 -6 b 244 17 247 -6 244 1 z "},"Ď":{"ha":533,"x_min":0,"x_max":0,"o":"m 383 1218 l 254 1182 l 251 1182 l 122 1218 l 114 1218 l 249 1028 l 257 1028 l 392 1218 z m 8 972 l 8 0 l 264 0 b 525 243 429 0 525 79 l 525 729 b 264 972 525 892 429 972 z m 258 964 l 261 964 b 275 942 275 964 275 961 l 275 31 b 261 8 275 11 275 8 l 258 8 z "},"ď":{"ha":506,"x_min":0,"x_max":0,"o":"m 517 657 l 547 657 l 692 1000 l 531 1000 z m 497 0 l 497 1000 l 261 1000 l 261 674 l 258 675 b 135 722 228 706 182 722 b 8 560 61 722 8 676 l 8 199 b 121 -14 8 42 57 -14 b 258 49 167 -14 222 14 l 261 49 l 261 0 z m 261 61 b 251 54 258 57 254 54 b 244 67 247 54 244 60 l 244 657 b 251 668 244 664 247 668 b 261 661 254 668 258 665 z "},"Ē":{"ha":378,"x_min":0,"x_max":0,"o":"m 342 1125 l 36 1125 l 36 1117 l 342 1117 z m 369 964 l 369 972 l 8 972 l 8 0 l 369 0 l 369 8 l 258 8 l 258 508 l 369 508 l 369 517 l 258 517 l 258 964 z "},"ē":{"ha":506,"x_min":0,"x_max":0,"o":"m 403 861 l 97 861 l 97 853 l 403 853 z m 261 294 l 261 17 b 253 -6 261 1 258 -6 b 244 17 247 -6 244 1 l 244 354 l 497 354 l 497 483 b 250 722 497 631 401 722 b 8 483 99 722 8 632 l 8 225 b 250 -14 8 76 99 -14 b 497 225 401 -14 497 78 l 497 294 z m 244 692 b 253 714 244 707 247 714 b 261 692 258 714 261 707 l 261 363 l 244 363 z "},"Ĕ":{"ha":378,"x_min":0,"x_max":0,"o":"m 33 1218 b 189 1028 33 1079 115 1028 b 344 1218 263 1028 344 1079 l 335 1218 b 189 1139 335 1165 271 1139 b 42 1218 106 1139 42 1165 z m 369 964 l 369 972 l 8 972 l 8 0 l 369 0 l 369 8 l 258 8 l 258 508 l 369 508 l 369 517 l 258 517 l 258 964 z "},"ĕ":{"ha":506,"x_min":0,"x_max":0,"o":"m 94 954 b 250 764 94 815 176 764 b 406 954 324 764 406 815 l 396 954 b 250 875 396 901 332 875 b 103 954 167 875 103 901 z m 261 294 l 261 17 b 253 -6 261 1 258 -6 b 244 17 247 -6 244 1 l 244 354 l 497 354 l 497 483 b 250 722 497 631 401 722 b 8 483 99 722 8 632 l 8 225 b 250 -14 8 76 99 -14 b 497 225 401 -14 497 78 l 497 294 z m 244 692 b 253 714 244 707 247 714 b 261 692 258 714 261 707 l 261 363 l 244 363 z "},"Ė":{"ha":378,"x_min":0,"x_max":0,"o":"m 90 1124 b 189 1021 90 1060 114 1021 b 288 1122 264 1021 288 1060 b 188 1225 288 1185 263 1225 b 90 1124 113 1225 90 1186 z m 369 964 l 369 972 l 8 972 l 8 0 l 369 0 l 369 8 l 258 8 l 258 508 l 369 508 l 369 517 l 258 517 l 258 964 z "},"ė":{"ha":506,"x_min":0,"x_max":0,"o":"m 151 860 b 250 757 151 796 175 757 b 349 858 325 757 349 796 b 249 961 349 921 324 961 b 151 860 174 961 151 922 z m 261 294 l 261 17 b 253 -6 261 1 258 -6 b 244 17 247 -6 244 1 l 244 354 l 497 354 l 497 483 b 250 722 497 631 401 722 b 8 483 99 722 8 632 l 8 225 b 250 -14 8 76 99 -14 b 497 225 401 -14 497 78 l 497 294 z m 244 692 b 253 714 244 707 247 714 b 261 692 258 714 261 707 l 261 363 l 244 363 z "},"Ę":{"ha":378,"x_min":0,"x_max":0,"o":"m 369 964 l 369 972 l 8 972 l 8 0 l 294 0 b 138 -147 190 -21 138 -87 b 267 -251 138 -203 181 -251 b 369 -233 296 -251 331 -246 l 369 -226 b 335 -231 357 -229 346 -231 b 238 -126 271 -231 238 -179 b 367 0 238 -67 281 -4 l 369 0 l 369 8 l 258 8 l 258 508 l 369 508 l 369 517 l 258 517 l 258 964 z "},"ę":{"ha":506,"x_min":0,"x_max":0,"o":"m 346 -226 b 311 -231 333 -229 322 -231 b 214 -126 247 -231 214 -179 b 290 -11 214 -81 239 -33 b 497 225 418 4 497 92 l 497 294 l 261 294 l 261 17 b 253 -6 261 1 258 -6 b 244 17 247 -6 244 1 l 244 354 l 497 354 l 497 483 b 250 722 497 631 401 722 b 8 483 99 722 8 632 l 8 225 b 231 -14 8 83 92 -6 b 114 -147 153 -40 114 -96 b 243 -251 114 -203 157 -251 b 346 -233 272 -251 307 -246 z m 244 692 b 253 714 244 707 247 714 b 261 692 258 714 261 707 l 261 363 l 244 363 z "},"Ě":{"ha":378,"x_min":0,"x_max":0,"o":"m 319 1218 l 190 1182 l 188 1182 l 58 1218 l 50 1218 l 185 1028 l 193 1028 l 328 1218 z m 369 964 l 369 972 l 8 972 l 8 0 l 369 0 l 369 8 l 258 8 l 258 508 l 369 508 l 369 517 l 258 517 l 258 964 z "},"ě":{"ha":506,"x_min":0,"x_max":0,"o":"m 381 954 l 251 918 l 249 918 l 119 954 l 111 954 l 246 764 l 254 764 l 389 954 z m 261 294 l 261 17 b 253 -6 261 1 258 -6 b 244 17 247 -6 244 1 l 244 354 l 497 354 l 497 483 b 250 722 497 631 401 722 b 8 483 99 722 8 632 l 8 225 b 250 -14 8 76 99 -14 b 497 225 401 -14 497 78 l 497 294 z m 244 692 b 253 714 244 707 247 714 b 261 692 258 714 261 707 l 261 363 l 244 363 z "},"Ĝ":{"ha":533,"x_min":0,"x_max":0,"o":"m 135 1032 l 264 1068 l 267 1068 l 396 1032 l 404 1032 l 269 1222 l 261 1222 l 126 1032 z m 258 956 b 267 978 258 972 261 978 b 275 956 272 978 275 972 l 275 556 l 525 556 l 525 729 b 263 986 525 893 429 986 b 8 729 99 986 8 897 l 8 244 b 206 -14 8 51 111 -14 b 353 64 272 -14 335 19 l 356 64 l 356 0 l 525 0 l 525 503 l 258 503 z m 258 494 l 275 494 l 275 32 b 267 10 275 17 272 10 b 258 32 261 10 258 17 z "},"ĝ":{"ha":506,"x_min":0,"x_max":0,"o":"m 51 768 l 181 804 l 183 804 l 313 768 l 321 768 l 186 958 l 178 958 l 43 768 z m 497 708 l 261 708 l 261 647 l 258 647 b 135 722 221 699 181 722 b 8 540 56 722 8 654 l 8 178 b 138 -14 8 60 58 -14 b 258 61 182 -14 222 11 l 261 61 l 261 -258 b 253 -283 261 -276 258 -283 b 244 -261 247 -283 244 -276 l 244 -36 l 8 -36 l 8 -81 b 254 -292 8 -214 99 -292 b 497 -81 410 -292 497 -215 z m 261 633 l 261 75 b 251 68 258 71 254 68 b 244 82 247 68 244 74 l 244 629 b 251 640 244 636 247 640 b 261 633 254 640 258 638 z "},"Ğ":{"ha":533,"x_min":0,"x_max":0,"o":"m 111 1218 b 267 1028 111 1079 193 1028 b 422 1218 340 1028 422 1079 l 413 1218 b 267 1139 413 1165 349 1139 b 119 1218 183 1139 119 1165 z m 258 956 b 267 978 258 972 261 978 b 275 956 272 978 275 972 l 275 556 l 525 556 l 525 729 b 263 986 525 893 429 986 b 8 729 99 986 8 897 l 8 244 b 206 -14 8 51 111 -14 b 353 64 272 -14 335 19 l 356 64 l 356 0 l 525 0 l 525 503 l 258 503 z m 258 494 l 275 494 l 275 32 b 267 10 275 17 272 10 b 258 32 261 10 258 17 z "},"ğ":{"ha":506,"x_min":0,"x_max":0,"o":"m 28 954 b 183 764 28 815 110 764 b 339 954 257 764 339 815 l 329 954 b 183 875 329 901 265 875 b 36 954 100 875 36 901 z m 497 708 l 261 708 l 261 647 l 258 647 b 135 722 221 699 181 722 b 8 540 56 722 8 654 l 8 178 b 138 -14 8 60 58 -14 b 258 61 182 -14 222 11 l 261 61 l 261 -258 b 253 -283 261 -276 258 -283 b 244 -261 247 -283 244 -276 l 244 -36 l 8 -36 l 8 -81 b 254 -292 8 -214 99 -292 b 497 -81 410 -292 497 -215 z m 261 633 l 261 75 b 251 68 258 71 254 68 b 244 82 247 68 244 74 l 244 629 b 251 640 244 636 247 640 b 261 633 254 640 258 638 z "},"Ġ":{"ha":533,"x_min":0,"x_max":0,"o":"m 168 1124 b 267 1021 168 1060 192 1021 b 365 1122 342 1021 365 1060 b 265 1225 365 1185 340 1225 b 168 1124 190 1225 168 1186 z m 258 956 b 267 978 258 972 261 978 b 275 956 272 978 275 972 l 275 556 l 525 556 l 525 729 b 263 986 525 893 429 986 b 8 729 99 986 8 897 l 8 244 b 206 -14 8 51 111 -14 b 353 64 272 -14 335 19 l 356 64 l 356 0 l 525 0 l 525 503 l 258 503 z m 258 494 l 275 494 l 275 32 b 267 10 275 17 272 10 b 258 32 261 10 258 17 z "},"ġ":{"ha":506,"x_min":0,"x_max":0,"o":"m 85 860 b 183 757 85 796 108 757 b 282 858 258 757 282 796 b 182 961 282 921 257 961 b 85 860 107 961 85 922 z m 497 708 l 261 708 l 261 647 l 258 647 b 135 722 221 699 181 722 b 8 540 56 722 8 654 l 8 178 b 138 -14 8 60 58 -14 b 258 61 182 -14 222 11 l 261 61 l 261 -258 b 253 -283 261 -276 258 -283 b 244 -261 247 -283 244 -276 l 244 -36 l 8 -36 l 8 -81 b 254 -292 8 -214 99 -292 b 497 -81 410 -292 497 -215 z m 261 633 l 261 75 b 251 68 258 71 254 68 b 244 82 247 68 244 74 l 244 629 b 251 640 244 636 247 640 b 261 633 254 640 258 638 z "},"Ģ":{"ha":533,"x_min":0,"x_max":0,"o":"m 258 956 b 267 978 258 972 261 978 b 275 956 272 978 275 972 l 275 556 l 525 556 l 525 729 b 263 986 525 893 429 986 b 8 729 99 986 8 897 l 8 244 b 206 -14 8 51 111 -14 b 353 64 272 -14 335 19 l 356 64 l 356 0 l 525 0 l 525 503 l 258 503 z m 160 -246 l 192 -246 l 363 -56 l 174 -56 z m 258 494 l 275 494 l 275 32 b 267 10 275 17 272 10 b 258 32 261 10 258 17 z "},"ģ":{"ha":506,"x_min":0,"x_max":0,"o":"m 371 954 l 339 954 l 171 765 l 360 765 z m 497 708 l 261 708 l 261 647 l 258 647 b 135 722 221 699 181 722 b 8 540 56 722 8 654 l 8 178 b 138 -14 8 60 58 -14 b 258 61 182 -14 222 11 l 261 61 l 261 -258 b 253 -283 261 -276 258 -283 b 244 -261 247 -283 244 -276 l 244 -36 l 8 -36 l 8 -81 b 254 -292 8 -214 99 -292 b 497 -81 410 -292 497 -215 z m 261 633 l 261 75 b 251 68 258 71 254 68 b 244 82 247 68 244 74 l 244 629 b 251 640 244 636 247 640 b 261 633 254 640 258 638 z "},"Ĥ":{"ha":533,"x_min":0,"x_max":0,"o":"m 135 1032 l 264 1068 l 267 1068 l 396 1032 l 404 1032 l 269 1222 l 261 1222 l 126 1032 z m 275 972 l 275 503 l 258 503 l 258 972 l 8 972 l 8 0 l 258 0 l 258 494 l 275 494 l 275 0 l 525 0 l 525 972 z "},"ĥ":{"ha":506,"x_min":0,"x_max":0,"o":"m -10 1046 l 119 1082 l 122 1082 l 251 1046 l 260 1046 l 125 1236 l 117 1236 l -18 1046 z m 8 0 l 244 0 l 244 633 b 254 640 247 638 251 640 b 261 629 258 640 261 636 l 261 0 l 497 0 l 497 540 b 371 722 497 671 439 722 b 247 647 324 722 286 699 l 244 647 l 244 1000 l 8 1000 z "},"Ħ":{"ha":533,"x_min":0,"x_max":0,"o":"m 275 972 l 275 754 l 258 754 l 258 972 l 8 972 l 8 754 l -19 754 l -19 746 l 8 746 l 8 0 l 258 0 l 258 494 l 275 494 l 275 0 l 525 0 l 525 746 l 553 746 l 553 754 l 525 754 l 525 972 z m 258 503 l 258 746 l 275 746 l 275 503 z "},"ħ":{"ha":506,"x_min":0,"x_max":0,"o":"m 8 0 l 244 0 l 244 633 b 254 640 247 638 251 640 b 261 629 258 640 261 636 l 261 0 l 497 0 l 497 540 b 371 722 497 671 439 722 b 247 647 324 722 286 699 l 244 647 l 244 853 l 313 853 l 313 861 l 244 861 l 244 1000 l 8 1000 l 8 861 l -35 861 l -35 853 l 8 853 z "},"Ĩ":{"ha":267,"x_min":0,"x_max":0,"o":"m 268 1215 l 260 1215 l 260 1213 b 226 1172 260 1182 246 1172 b 144 1196 204 1172 174 1185 l 140 1197 b 67 1219 113 1210 86 1219 b -3 1038 22 1219 -3 1154 l -3 1035 l 7 1035 l 7 1036 b 40 1079 7 1068 19 1079 b 119 1056 61 1079 90 1068 l 125 1053 b 203 1029 153 1042 182 1029 b 268 1213 247 1029 268 1089 z m 8 972 l 8 0 l 258 0 l 258 972 z "},"ĩ":{"ha":256,"x_min":0,"x_max":0,"o":"m 263 951 l 254 951 l 254 949 b 221 908 254 918 242 908 b 139 932 199 908 168 921 l 135 933 b 61 956 107 944 81 956 b -8 774 17 956 -8 890 l -8 771 l 1 771 l 1 772 b 35 815 1 804 14 815 b 114 792 56 815 85 803 l 119 789 b 197 765 147 776 176 765 b 263 949 242 765 263 825 z m 10 708 l 10 0 l 246 0 l 246 708 z "},"Ī":{"ha":267,"x_min":0,"x_max":0,"o":"m 286 1125 l -19 1125 l -19 1117 l 286 1117 z m 8 972 l 8 0 l 258 0 l 258 972 z "},"ī":{"ha":256,"x_min":0,"x_max":0,"o":"m 281 861 l -25 861 l -25 853 l 281 853 z m 10 708 l 10 0 l 246 0 l 246 708 z "},"Ĭ":{"ha":267,"x_min":0,"x_max":0,"o":"m -22 1218 b 133 1028 -22 1079 60 1028 b 289 1218 207 1028 289 1079 l 279 1218 b 133 1139 279 1165 215 1139 b -14 1218 50 1139 -14 1165 z m 8 972 l 8 0 l 258 0 l 258 972 z "},"ĭ":{"ha":256,"x_min":0,"x_max":0,"o":"m -28 954 b 128 764 -28 815 54 764 b 283 954 201 764 283 815 l 274 954 b 128 875 274 901 210 875 b -19 954 44 875 -19 901 z m 10 708 l 10 0 l 246 0 l 246 708 z "},"Į":{"ha":267,"x_min":0,"x_max":0,"o":"m 8 972 l 8 0 l 182 0 b 25 -147 78 -21 25 -87 b 154 -251 25 -203 68 -251 b 257 -233 183 -251 218 -246 l 257 -226 b 224 -231 246 -229 233 -231 b 125 -126 158 -231 125 -179 b 254 0 125 -67 168 -4 l 258 0 l 258 972 z "},"į":{"ha":256,"x_min":0,"x_max":0,"o":"m 1 861 b 128 749 1 783 50 749 b 254 861 206 749 254 783 b 126 974 254 938 204 974 b 1 861 50 974 1 939 z m 10 708 l 10 0 l 246 0 l 246 708 z m 242 -7 b 11 -161 89 -7 11 -89 b 140 -265 11 -217 54 -265 b 244 -247 171 -265 204 -260 l 244 -240 b 210 -244 232 -243 219 -244 b 111 -140 144 -244 111 -193 b 242 -14 111 -81 154 -18 z "},"İ":{"ha":267,"x_min":0,"x_max":0,"o":"m 35 1124 b 133 1021 35 1060 58 1021 b 232 1122 208 1021 232 1060 b 132 1225 232 1185 207 1225 b 35 1124 57 1225 35 1186 z m 8 972 l 8 0 l 258 0 l 258 972 z "},"Ĳ":{"ha":800,"x_min":0,"x_max":0,"o":"m 8 972 l 8 0 l 258 0 l 258 972 z m 542 972 l 542 17 b 533 -6 542 1 539 -6 b 525 17 528 -6 525 1 l 525 465 l 275 465 l 275 244 b 528 -14 275 76 361 -14 b 792 244 697 -14 792 79 l 792 972 z "},"ĳ":{"ha":510,"x_min":0,"x_max":0,"o":"m 1 861 b 128 749 1 783 50 749 b 254 861 206 749 254 783 b 126 974 254 938 204 974 b 1 861 50 974 1 939 z m 256 861 b 382 749 256 788 300 749 b 508 860 465 749 508 788 b 381 974 508 933 463 974 b 256 861 299 974 256 935 z m 10 708 l 10 0 l 246 0 l 246 708 z m 500 -60 l 500 708 l 264 708 l 264 -187 b 219 -272 264 -225 264 -272 b 200 -271 214 -272 207 -272 l 200 -279 b 324 -292 246 -286 288 -292 b 500 -60 435 -292 500 -244 z "},"Ĵ":{"ha":533,"x_min":0,"x_max":0,"o":"m 268 1032 l 397 1068 l 400 1068 l 529 1032 l 538 1032 l 403 1222 l 394 1222 l 260 1032 z m 275 972 l 275 17 b 267 -6 275 1 272 -6 b 258 17 261 -6 258 1 l 258 465 l 8 465 l 8 244 b 261 -14 8 76 94 -14 b 525 244 431 -14 525 79 l 525 972 z "},"ĵ":{"ha":254,"x_min":0,"x_max":0,"o":"m -7 768 l 122 804 l 125 804 l 254 768 l 263 768 l 128 958 l 119 958 l -15 768 z m 244 -60 l 244 708 l 8 708 l 8 -187 b -36 -272 8 -225 8 -272 b -56 -271 -42 -272 -49 -272 l -56 -279 b 68 -292 -10 -286 32 -292 b 244 -60 179 -292 244 -244 z "},"Ķ":{"ha":554,"x_min":0,"x_max":0,"o":"m 258 972 l 8 972 l 8 0 l 258 0 l 258 524 l 261 524 l 300 0 l 550 0 l 475 528 l 536 972 l 286 972 l 261 532 l 258 532 z m 172 -246 l 204 -246 l 375 -56 l 186 -56 z "},"ķ":{"ha":494,"x_min":0,"x_max":0,"o":"m 244 1000 l 8 1000 l 8 0 l 244 0 l 244 368 l 247 368 l 278 0 l 508 0 l 446 372 l 500 708 l 269 708 l 247 376 l 244 376 z m 151 -246 l 183 -246 l 354 -56 l 165 -56 z "},"ĸ":{"ha":494,"x_min":0,"x_max":0,"o":"m 244 708 l 8 708 l 8 0 l 244 0 l 244 368 l 247 368 l 278 0 l 508 0 l 446 372 l 500 708 l 269 708 l 247 376 l 244 376 z "},"Ĺ":{"ha":374,"x_min":0,"x_max":0,"o":"m 106 1028 l 246 1218 l 65 1218 l 97 1028 z m 8 972 l 8 0 l 369 0 l 369 8 l 258 8 l 258 972 z "},"ĺ":{"ha":253,"x_min":0,"x_max":0,"o":"m 99 1056 l 239 1246 l 58 1246 l 90 1056 z m 8 0 l 244 0 l 244 1000 l 8 1000 z "},"Ļ":{"ha":374,"x_min":0,"x_max":0,"o":"m 8 972 l 8 0 l 369 0 l 369 8 l 258 8 l 258 972 z m 74 -246 l 106 -246 l 276 -56 l 88 -56 z "},"ļ":{"ha":253,"x_min":0,"x_max":0,"o":"m 8 0 l 244 0 l 244 1000 l 8 1000 z m 21 -246 l 53 -246 l 224 -56 l 35 -56 z "},"Ľ":{"ha":388,"x_min":0,"x_max":0,"o":"m 276 629 l 307 629 l 451 972 l 290 972 z m 8 972 l 8 0 l 369 0 l 369 8 l 258 8 l 258 972 z "},"ľ":{"ha":253,"x_min":0,"x_max":0,"o":"m 263 657 l 293 657 l 438 1000 l 276 1000 z m 8 0 l 244 0 l 244 1000 l 8 1000 z "},"Ŀ":{"ha":374,"x_min":0,"x_max":0,"o":"m 8 972 l 8 0 l 369 0 l 369 8 l 258 8 l 258 972 z m 275 521 b 374 418 275 457 299 418 b 472 519 449 418 472 457 b 372 622 472 582 447 622 b 275 521 297 622 275 583 z "},"ŀ":{"ha":253,"x_min":0,"x_max":0,"o":"m 8 0 l 244 0 l 244 1000 l 8 1000 z m 260 499 b 358 396 260 435 283 396 b 457 497 433 396 457 435 b 357 600 457 560 432 600 b 260 499 282 600 260 561 z "},"Ń":{"ha":481,"x_min":0,"x_max":0,"o":"m 213 1028 l 353 1218 l 172 1218 l 204 1028 z m 464 972 l 464 69 l 461 69 l 261 972 l 8 972 l 8 0 l 17 0 l 17 932 l 19 932 l 222 0 l 472 0 l 472 972 z "},"ń":{"ha":506,"x_min":0,"x_max":0,"o":"m 226 764 l 367 954 l 186 954 l 218 764 z m 8 0 l 244 0 l 244 633 b 254 640 247 638 251 640 b 261 629 258 640 261 636 l 261 0 l 497 0 l 497 540 b 371 722 497 671 439 722 b 247 647 324 722 288 699 l 244 647 l 244 708 l 8 708 z "},"Ņ":{"ha":481,"x_min":0,"x_max":0,"o":"m 464 972 l 464 69 l 461 69 l 261 972 l 8 972 l 8 0 l 17 0 l 17 932 l 19 932 l 222 0 l 472 0 l 472 972 z m 133 -246 l 165 -246 l 336 -56 l 147 -56 z "},"ņ":{"ha":506,"x_min":0,"x_max":0,"o":"m 8 0 l 244 0 l 244 633 b 254 640 247 638 251 640 b 261 629 258 640 261 636 l 261 0 l 497 0 l 497 540 b 371 722 497 671 439 722 b 247 647 324 722 288 699 l 244 647 l 244 708 l 8 708 z m 146 -246 l 178 -246 l 349 -56 l 160 -56 z "},"Ň":{"ha":481,"x_min":0,"x_max":0,"o":"m 371 1218 l 242 1182 l 239 1182 l 110 1218 l 101 1218 l 236 1028 l 244 1028 l 379 1218 z m 464 972 l 464 69 l 461 69 l 261 972 l 8 972 l 8 0 l 17 0 l 17 932 l 19 932 l 222 0 l 472 0 l 472 972 z "},"ň":{"ha":506,"x_min":0,"x_max":0,"o":"m 385 954 l 256 918 l 253 918 l 124 954 l 115 954 l 250 764 l 258 764 l 393 954 z m 8 0 l 244 0 l 244 633 b 254 640 247 638 251 640 b 261 629 258 640 261 636 l 261 0 l 497 0 l 497 540 b 371 722 497 671 439 722 b 247 647 324 722 288 699 l 244 647 l 244 708 l 8 708 z "},"ŉ":{"ha":506,"x_min":0,"x_max":0,"o":"m -81 629 l -49 629 l 124 972 l -67 972 z m 8 0 l 244 0 l 244 633 b 254 640 247 638 251 640 b 261 629 258 640 261 636 l 261 0 l 497 0 l 497 540 b 371 722 497 671 439 722 b 247 647 324 722 288 699 l 244 647 l 244 708 l 8 708 z "},"Ŋ":{"ha":481,"x_min":0,"x_max":0,"o":"m 464 972 l 464 69 l 461 69 l 261 972 l 8 972 l 8 0 l 17 0 l 17 932 l 19 932 l 222 0 l 222 -187 b 188 -272 222 -225 222 -272 b 172 -271 183 -272 178 -272 l 172 -279 b 296 -292 218 -286 260 -292 b 472 -60 407 -292 472 -244 l 472 972 z "},"ŋ":{"ha":506,"x_min":0,"x_max":0,"o":"m 497 -60 l 497 540 b 371 722 497 671 439 722 b 247 647 324 722 288 699 l 244 647 l 244 708 l 8 708 l 8 0 l 244 0 l 244 633 b 254 640 247 638 251 640 b 261 629 258 640 261 636 l 261 -187 b 217 -272 261 -225 261 -272 b 197 -271 211 -272 204 -272 l 197 -279 b 321 -292 243 -286 285 -292 b 497 -60 432 -292 497 -244 z "},"Ō":{"ha":533,"x_min":0,"x_max":0,"o":"m 419 1125 l 114 1125 l 114 1117 l 419 1117 z m 8 729 l 8 244 b 263 -14 8 76 99 -14 b 525 244 429 -14 525 79 l 525 729 b 263 986 525 893 429 986 b 8 729 99 986 8 897 z m 258 956 b 267 978 258 972 261 978 b 275 956 272 978 275 972 l 275 17 b 267 -6 275 1 272 -6 b 258 17 261 -6 258 1 z "},"ō":{"ha":506,"x_min":0,"x_max":0,"o":"m 403 861 l 97 861 l 97 853 l 403 853 z m 8 483 l 8 225 b 250 -14 8 86 89 -14 b 497 225 411 -14 497 88 l 497 483 b 250 722 497 621 411 722 b 8 483 89 722 8 622 z m 244 692 b 253 714 244 708 247 714 b 261 692 258 714 261 708 l 261 17 b 253 -6 261 1 258 -6 b 244 17 247 -6 244 1 z "},"Ŏ":{"ha":533,"x_min":0,"x_max":0,"o":"m 111 1218 b 267 1028 111 1079 193 1028 b 422 1218 340 1028 422 1079 l 413 1218 b 267 1139 413 1165 349 1139 b 119 1218 183 1139 119 1165 z m 8 729 l 8 244 b 263 -14 8 76 99 -14 b 525 244 429 -14 525 79 l 525 729 b 263 986 525 893 429 986 b 8 729 99 986 8 897 z m 258 956 b 267 978 258 972 261 978 b 275 956 272 978 275 972 l 275 17 b 267 -6 275 1 272 -6 b 258 17 261 -6 258 1 z "},"ŏ":{"ha":506,"x_min":0,"x_max":0,"o":"m 94 954 b 250 764 94 815 176 764 b 406 954 324 764 406 815 l 396 954 b 250 875 396 901 332 875 b 103 954 167 875 103 901 z m 8 483 l 8 225 b 250 -14 8 86 89 -14 b 497 225 411 -14 497 88 l 497 483 b 250 722 497 621 411 722 b 8 483 89 722 8 622 z m 244 692 b 253 714 244 708 247 714 b 261 692 258 714 261 708 l 261 17 b 253 -6 261 1 258 -6 b 244 17 247 -6 244 1 z "},"Ő":{"ha":533,"x_min":0,"x_max":0,"o":"m 179 1028 l 293 1218 l 154 1218 l 171 1028 z m 335 1028 l 449 1218 l 310 1218 l 326 1028 z m 8 729 l 8 244 b 263 -14 8 76 99 -14 b 525 244 429 -14 525 79 l 525 729 b 263 986 525 893 429 986 b 8 729 99 986 8 897 z m 258 956 b 267 978 258 972 261 978 b 275 956 272 978 275 972 l 275 17 b 267 -6 275 1 272 -6 b 258 17 261 -6 258 1 z "},"ő":{"ha":506,"x_min":0,"x_max":0,"o":"m 163 764 l 276 954 l 138 954 l 154 764 z m 318 764 l 432 954 l 293 954 l 310 764 z m 8 483 l 8 225 b 250 -14 8 86 89 -14 b 497 225 411 -14 497 88 l 497 483 b 250 722 497 621 411 722 b 8 483 89 722 8 622 z m 244 692 b 253 714 244 708 247 714 b 261 692 258 714 261 708 l 261 17 b 253 -6 261 1 258 -6 b 244 17 247 -6 244 1 z "},"Ŕ":{"ha":533,"x_min":0,"x_max":0,"o":"m 239 1028 l 379 1218 l 199 1218 l 231 1028 z m 8 972 l 8 0 l 258 0 l 258 451 l 261 451 b 275 429 275 451 275 449 l 275 199 b 289 0 275 124 276 60 l 539 0 b 525 197 526 60 525 124 l 525 208 b 314 454 525 357 442 454 l 314 457 b 525 706 443 457 525 542 l 525 713 b 264 972 525 889 429 972 z m 258 964 l 261 964 b 275 942 275 964 275 961 l 275 482 b 261 460 275 463 275 460 l 258 460 z "},"ŕ":{"ha":397,"x_min":0,"x_max":0,"o":"m 172 764 l 313 954 l 132 954 l 164 764 z m 244 708 l 8 708 l 8 0 l 244 0 l 244 375 b 350 489 244 450 275 489 b 389 486 363 489 376 488 l 389 721 b 375 722 383 722 379 722 b 247 457 293 722 261 594 l 244 457 z "},"Ŗ":{"ha":533,"x_min":0,"x_max":0,"o":"m 8 972 l 8 0 l 258 0 l 258 451 l 261 451 b 275 429 275 451 275 449 l 275 199 b 289 0 275 124 276 60 l 539 0 b 525 197 526 60 525 124 l 525 208 b 314 454 525 357 442 454 l 314 457 b 525 706 443 457 525 542 l 525 713 b 264 972 525 889 429 972 z m 258 964 l 261 964 b 275 942 275 964 275 961 l 275 482 b 261 460 275 463 275 460 l 258 460 z m 167 -246 l 199 -246 l 369 -56 l 181 -56 z "},"ŗ":{"ha":397,"x_min":0,"x_max":0,"o":"m 244 708 l 8 708 l 8 0 l 244 0 l 244 375 b 350 489 244 450 275 489 b 389 486 363 489 376 488 l 389 721 b 375 722 383 722 379 722 b 247 457 293 722 261 594 l 244 457 z m 19 -246 l 51 -246 l 222 -56 l 33 -56 z "},"Ř":{"ha":533,"x_min":0,"x_max":0,"o":"m 397 1218 l 268 1182 l 265 1182 l 136 1218 l 128 1218 l 263 1028 l 271 1028 l 406 1218 z m 8 972 l 8 0 l 258 0 l 258 451 l 261 451 b 275 429 275 451 275 449 l 275 199 b 289 0 275 124 276 60 l 539 0 b 525 197 526 60 525 124 l 525 208 b 314 454 525 357 442 454 l 314 457 b 525 706 443 457 525 542 l 525 713 b 264 972 525 889 429 972 z m 258 964 l 261 964 b 275 942 275 964 275 961 l 275 482 b 261 460 275 463 275 460 l 258 460 z "},"ř":{"ha":397,"x_min":0,"x_max":0,"o":"m 331 954 l 201 918 l 199 918 l 69 954 l 61 954 l 196 764 l 204 764 l 339 954 z m 244 708 l 8 708 l 8 0 l 244 0 l 244 375 b 350 489 244 450 275 489 b 389 486 363 489 376 488 l 389 721 b 375 722 383 722 379 722 b 247 457 293 722 261 594 l 244 457 z "},"Ś":{"ha":533,"x_min":0,"x_max":0,"o":"m 239 1028 l 379 1218 l 199 1218 l 231 1028 z m 525 639 l 525 729 b 263 986 525 893 429 986 b 8 729 99 986 8 897 l 8 717 b 132 431 8 554 35 485 l 176 406 b 275 306 272 351 275 346 l 275 15 b 267 -6 275 1 272 -6 b 258 17 261 -6 258 1 l 258 333 l 8 333 l 8 244 b 263 -14 8 76 97 -14 b 525 244 429 -14 525 79 l 525 263 b 406 542 525 425 500 489 l 368 563 b 258 669 261 622 258 629 l 258 956 b 267 978 258 971 261 978 b 275 956 272 978 275 971 l 275 639 z "},"ś":{"ha":506,"x_min":0,"x_max":0,"o":"m 222 764 l 363 954 l 182 954 l 214 764 z m 497 467 l 497 496 b 251 722 497 621 410 722 b 10 511 93 722 10 622 l 10 489 b 118 311 10 394 39 347 l 218 265 b 260 207 256 249 260 242 l 260 21 b 251 -4 260 6 257 -4 b 244 21 246 -4 244 4 l 244 242 l 8 242 l 8 214 b 249 -14 8 86 90 -14 b 496 197 408 -14 496 88 l 496 219 b 381 399 496 314 458 360 l 282 447 b 246 496 250 463 246 469 l 246 689 b 254 714 246 707 249 714 b 261 689 260 714 261 707 l 261 467 z "},"Ŝ":{"ha":533,"x_min":0,"x_max":0,"o":"m 135 1032 l 264 1068 l 267 1068 l 396 1032 l 404 1032 l 269 1222 l 261 1222 l 126 1032 z m 525 639 l 525 729 b 263 986 525 893 429 986 b 8 729 99 986 8 897 l 8 717 b 132 431 8 554 35 485 l 176 406 b 275 306 272 351 275 346 l 275 15 b 267 -6 275 1 272 -6 b 258 17 261 -6 258 1 l 258 333 l 8 333 l 8 244 b 263 -14 8 76 97 -14 b 525 244 429 -14 525 79 l 525 263 b 406 542 525 425 500 489 l 368 563 b 258 669 261 622 258 629 l 258 956 b 267 978 258 971 261 978 b 275 956 272 978 275 971 l 275 639 z "},"ŝ":{"ha":506,"x_min":0,"x_max":0,"o":"m 118 768 l 247 804 l 250 804 l 379 768 l 388 768 l 253 958 l 244 958 l 110 768 z m 497 467 l 497 496 b 251 722 497 621 410 722 b 10 511 93 722 10 622 l 10 489 b 118 311 10 394 39 347 l 218 265 b 260 207 256 249 260 242 l 260 21 b 251 -4 260 6 257 -4 b 244 21 246 -4 244 4 l 244 242 l 8 242 l 8 214 b 249 -14 8 86 90 -14 b 496 197 408 -14 496 88 l 496 219 b 381 399 496 314 458 360 l 282 447 b 246 496 250 463 246 469 l 246 689 b 254 714 246 707 249 714 b 261 689 260 714 261 707 l 261 467 z "},"Ş":{"ha":533,"x_min":0,"x_max":0,"o":"m 525 639 l 525 729 b 263 986 525 893 429 986 b 8 729 99 986 8 897 l 8 717 b 132 431 8 554 35 485 l 176 406 b 275 306 272 351 275 346 l 275 15 b 267 -7 275 1 272 -7 b 258 17 261 -7 258 1 l 258 333 l 8 333 l 8 244 b 263 -14 8 76 97 -14 b 292 -12 272 -14 282 -14 l 283 -65 b 408 -157 369 -65 408 -111 b 290 -254 408 -206 367 -254 b 243 -247 276 -254 260 -251 l 243 -256 b 332 -268 275 -264 304 -268 b 517 -156 443 -268 517 -211 b 293 -56 517 -104 454 -56 l 300 -12 b 525 244 443 1 525 92 l 525 263 b 406 542 525 425 501 489 l 368 563 b 258 669 261 622 258 629 l 258 956 b 267 978 258 971 261 978 b 275 956 272 978 275 971 l 275 639 z "},"ş":{"ha":506,"x_min":0,"x_max":0,"o":"m 499 467 l 499 496 b 251 722 499 621 410 722 b 10 511 93 722 10 622 l 10 489 b 118 311 10 394 39 347 l 218 265 b 260 207 256 249 260 242 l 260 21 b 251 -6 260 6 257 -6 b 244 21 246 -6 244 4 l 244 242 l 8 242 l 8 214 b 246 -14 8 86 89 -12 l 238 -65 b 363 -157 324 -65 363 -111 b 244 -254 363 -206 321 -254 b 197 -247 231 -254 214 -251 l 197 -256 b 286 -268 229 -264 258 -268 b 471 -156 397 -268 471 -211 b 247 -56 471 -104 407 -56 l 254 -14 b 497 197 410 -12 497 88 l 497 219 b 381 399 497 314 460 360 l 282 447 b 246 496 250 463 246 469 l 246 689 b 254 714 246 707 249 714 b 261 689 260 714 261 707 l 261 467 z "},"Ţ":{"ha":511,"x_min":0,"x_max":0,"o":"m 507 972 l 6 972 l 6 964 l 131 964 l 131 -1 l 251 -1 l 243 -54 b 368 -146 329 -54 368 -100 b 250 -243 368 -194 326 -243 b 203 -236 236 -243 219 -240 l 203 -244 b 292 -257 233 -253 264 -257 b 476 -144 403 -257 476 -200 b 253 -44 476 -93 414 -44 l 260 -1 l 381 -1 l 381 964 l 507 964 z "},"ţ":{"ha":396,"x_min":0,"x_max":0,"o":"m 0 700 l 56 700 l 56 219 b 199 -10 56 65 111 6 l 190 -65 b 315 -157 276 -65 315 -111 b 197 -254 315 -206 274 -254 b 150 -247 183 -254 167 -251 l 150 -256 b 239 -268 181 -264 211 -268 b 424 -156 350 -268 424 -211 b 200 -56 424 -104 360 -56 l 207 -11 b 254 -15 222 -14 238 -15 b 390 0 294 -15 340 -8 l 390 7 b 356 4 376 6 365 4 b 292 92 311 4 292 26 l 292 700 l 390 700 l 390 708 l 292 708 l 292 875 l 56 861 l 56 708 l 0 708 z "},"Ť":{"ha":511,"x_min":0,"x_max":0,"o":"m 386 1218 l 257 1182 l 254 1182 l 125 1218 l 117 1218 l 251 1028 l 260 1028 l 394 1218 z m 506 972 l 6 972 l 6 964 l 131 964 l 131 0 l 381 0 l 381 964 l 506 964 z "},"ť":{"ha":396,"x_min":0,"x_max":0,"o":"m 308 768 l 339 768 l 483 986 l 322 986 z m 0 700 l 56 700 l 56 221 b 253 -14 56 36 135 -14 b 390 0 294 -14 340 -8 l 390 8 b 354 6 376 6 365 6 b 292 92 311 6 292 26 l 292 700 l 390 700 l 390 708 l 292 708 l 292 875 l 56 861 l 56 708 l 0 708 z "},"Ŧ":{"ha":511,"x_min":0,"x_max":0,"o":"m 506 972 l 6 972 l 6 964 l 131 964 l 131 442 l 82 442 l 82 433 l 131 433 l 131 0 l 381 0 l 381 433 l 429 433 l 429 442 l 381 442 l 381 964 l 506 964 z "},"ŧ":{"ha":396,"x_min":0,"x_max":0,"o":"m 0 700 l 56 700 l 56 394 l 0 394 l 0 386 l 56 386 l 56 221 b 253 -14 56 36 135 -14 b 390 0 294 -14 340 -8 l 390 8 b 354 6 376 6 365 6 b 292 92 311 6 292 26 l 292 386 l 390 386 l 390 394 l 292 394 l 292 700 l 390 700 l 390 708 l 292 708 l 292 875 l 56 861 l 56 708 l 0 708 z "},"Ũ":{"ha":533,"x_min":0,"x_max":0,"o":"m 401 1215 l 393 1215 l 393 1213 b 360 1172 393 1182 379 1172 b 278 1196 338 1172 307 1185 l 274 1197 b 200 1219 246 1210 219 1219 b 132 1038 156 1219 132 1154 l 132 1035 l 140 1035 l 140 1036 b 174 1079 140 1068 153 1079 b 253 1056 194 1079 224 1068 l 257 1053 b 336 1029 286 1042 315 1029 b 401 1213 381 1029 401 1089 z m 8 972 l 8 244 b 263 -14 8 76 97 -14 b 525 244 431 -14 525 79 l 525 972 l 275 972 l 275 17 b 267 -6 275 1 272 -6 b 258 17 261 -6 258 1 l 258 972 z "},"ũ":{"ha":506,"x_min":0,"x_max":0,"o":"m 385 951 l 376 951 l 376 949 b 343 908 376 918 363 908 b 261 932 321 908 290 921 l 257 933 b 183 956 229 944 201 956 b 115 774 139 956 115 890 l 115 771 l 124 771 l 124 772 b 157 815 124 804 136 815 b 236 792 178 815 207 803 l 240 789 b 319 765 269 776 299 765 b 385 949 364 765 385 825 z m 497 708 l 261 708 l 261 75 b 251 68 258 71 254 68 b 244 79 247 68 244 72 l 244 708 l 8 708 l 8 168 b 135 -14 8 38 67 -14 b 260 61 182 -14 218 10 l 261 61 l 261 0 l 497 0 z "},"Ū":{"ha":533,"x_min":0,"x_max":0,"o":"m 419 1125 l 114 1125 l 114 1117 l 419 1117 z m 8 972 l 8 244 b 263 -14 8 76 97 -14 b 525 244 431 -14 525 79 l 525 972 l 275 972 l 275 17 b 267 -6 275 1 272 -6 b 258 17 261 -6 258 1 l 258 972 z "},"ū":{"ha":506,"x_min":0,"x_max":0,"o":"m 403 861 l 97 861 l 97 853 l 403 853 z m 497 708 l 261 708 l 261 75 b 251 68 258 71 254 68 b 244 79 247 68 244 72 l 244 708 l 8 708 l 8 168 b 135 -14 8 38 67 -14 b 260 61 182 -14 218 10 l 261 61 l 261 0 l 497 0 z "},"Ŭ":{"ha":533,"x_min":0,"x_max":0,"o":"m 111 1218 b 267 1028 111 1079 193 1028 b 422 1218 340 1028 422 1079 l 413 1218 b 267 1139 413 1165 349 1139 b 119 1218 183 1139 119 1165 z m 8 972 l 8 244 b 263 -14 8 76 97 -14 b 525 244 431 -14 525 79 l 525 972 l 275 972 l 275 17 b 267 -6 275 1 272 -6 b 258 17 261 -6 258 1 l 258 972 z "},"ŭ":{"ha":506,"x_min":0,"x_max":0,"o":"m 94 954 b 250 764 94 815 176 764 b 406 954 324 764 406 815 l 396 954 b 250 875 396 901 332 875 b 103 954 167 875 103 901 z m 497 708 l 261 708 l 261 75 b 251 68 258 71 254 68 b 244 79 247 68 244 72 l 244 708 l 8 708 l 8 168 b 135 -14 8 38 67 -14 b 260 61 182 -14 218 10 l 261 61 l 261 0 l 497 0 z "},"Ů":{"ha":533,"x_min":0,"x_max":0,"o":"m 147 1124 b 267 1021 147 1053 193 1021 b 386 1124 340 1021 386 1053 b 265 1225 386 1192 339 1225 b 147 1124 193 1225 147 1193 z m 160 1124 b 265 1214 160 1186 201 1214 b 374 1124 331 1214 374 1185 b 267 1032 374 1060 332 1032 b 160 1124 201 1032 160 1060 z m 8 972 l 8 244 b 263 -14 8 76 97 -14 b 525 244 431 -14 525 79 l 525 972 l 275 972 l 275 17 b 267 -6 275 1 272 -6 b 258 17 261 -6 258 1 l 258 972 z "},"ů":{"ha":506,"x_min":0,"x_max":0,"o":"m 131 860 b 250 757 131 789 176 757 b 369 860 324 757 369 789 b 249 961 369 929 322 961 b 131 860 176 961 131 929 z m 143 860 b 249 950 143 922 185 950 b 357 860 314 950 357 921 b 250 768 357 796 315 768 b 143 860 185 768 143 796 z m 497 708 l 261 708 l 261 75 b 251 68 258 71 254 68 b 244 79 247 68 244 72 l 244 708 l 8 708 l 8 168 b 135 -14 8 38 67 -14 b 260 61 182 -14 218 10 l 261 61 l 261 0 l 497 0 z "},"Ű":{"ha":533,"x_min":0,"x_max":0,"o":"m 179 1028 l 293 1218 l 154 1218 l 171 1028 z m 335 1028 l 449 1218 l 310 1218 l 326 1028 z m 8 972 l 8 244 b 263 -14 8 76 97 -14 b 525 244 431 -14 525 79 l 525 972 l 275 972 l 275 17 b 267 -6 275 1 272 -6 b 258 17 261 -6 258 1 l 258 972 z "},"ű":{"ha":506,"x_min":0,"x_max":0,"o":"m 163 764 l 276 954 l 138 954 l 154 764 z m 318 764 l 432 954 l 293 954 l 310 764 z m 497 708 l 261 708 l 261 75 b 251 68 258 71 254 68 b 244 79 247 68 244 72 l 244 708 l 8 708 l 8 168 b 135 -14 8 38 67 -14 b 260 61 182 -14 218 10 l 261 61 l 261 0 l 497 0 z "},"Ų":{"ha":533,"x_min":0,"x_max":0,"o":"m 8 972 l 8 244 b 244 -14 8 82 90 -7 b 133 -147 171 -42 133 -97 b 263 -251 133 -203 176 -251 b 365 -233 292 -251 326 -246 l 365 -226 b 331 -231 353 -229 342 -231 b 233 -126 267 -231 233 -179 b 311 -11 233 -79 258 -32 b 525 244 449 6 525 96 l 525 972 l 274 972 l 274 17 b 265 -6 274 1 271 -6 b 258 17 260 -6 258 1 l 258 972 z "},"ų":{"ha":506,"x_min":0,"x_max":0,"o":"m 497 708 l 261 708 l 261 75 b 251 68 258 71 254 68 b 244 79 247 68 244 72 l 244 708 l 8 708 l 8 168 b 135 -14 8 38 67 -14 b 260 61 182 -14 218 10 l 261 61 l 261 0 l 422 0 b 265 -147 318 -21 265 -87 b 396 -251 265 -203 308 -251 b 497 -233 425 -251 458 -246 l 497 -226 b 464 -231 486 -229 474 -231 b 365 -126 399 -231 365 -179 b 494 0 365 -67 408 -4 l 497 0 z "},"Ŵ":{"ha":753,"x_min":0,"x_max":0,"o":"m 351 1032 l 481 1068 l 483 1068 l 613 1032 l 621 1032 l 486 1222 l 478 1222 l 343 1032 z m 4 972 l 94 0 l 292 0 l 375 901 l 378 901 l 461 0 l 658 0 l 749 972 l 738 972 l 681 364 l 678 364 l 621 972 l 371 972 l 314 364 l 311 364 l 254 972 z "},"ŵ":{"ha":692,"x_min":0,"x_max":0,"o":"m 325 768 l 454 804 l 457 804 l 586 768 l 594 768 l 460 958 l 451 958 l 317 768 z m 6 708 l 88 0 l 268 0 l 344 660 l 347 660 l 424 0 l 604 0 l 686 708 l 678 708 l 629 289 l 626 289 l 578 708 l 342 708 l 293 289 l 290 289 l 242 708 z "},"Ŷ":{"ha":407,"x_min":0,"x_max":0,"o":"m 79 1032 l 208 1068 l 211 1068 l 340 1032 l 349 1032 l 214 1222 l 206 1222 l 71 1032 z m 4 972 l 78 397 l 78 0 l 329 0 l 329 397 l 403 972 l 392 972 l 326 461 l 324 461 l 253 972 z "},"ŷ":{"ha":506,"x_min":0,"x_max":0,"o":"m 118 768 l 247 804 l 250 804 l 379 768 l 388 768 l 253 958 l 244 958 l 110 768 z m 497 708 l 261 708 l 261 75 b 251 68 258 71 254 68 b 244 79 247 68 244 72 l 244 708 l 8 708 l 8 168 b 135 -14 8 38 67 -14 b 260 61 182 -14 218 10 l 261 61 l 261 -258 b 253 -283 261 -276 258 -283 b 244 -261 247 -283 244 -276 l 244 -36 l 8 -36 l 8 -81 b 254 -292 8 -214 99 -292 b 497 -81 410 -292 497 -215 z "},"Ź":{"ha":468,"x_min":0,"x_max":0,"o":"m 207 1028 l 347 1218 l 167 1218 l 199 1028 z m 18 972 l 18 964 l 197 964 l 199 961 l 4 8 l 4 0 l 464 0 l 464 8 l 257 8 l 256 11 l 450 964 l 450 972 z "},"ź":{"ha":449,"x_min":0,"x_max":0,"o":"m 197 763 l 338 953 l 157 953 l 189 763 z m 443 0 l 443 8 l 247 8 l 246 11 l 425 700 l 425 708 l 25 708 l 25 700 l 185 700 l 186 697 l 6 8 l 6 0 z "},"Ż":{"ha":468,"x_min":0,"x_max":0,"o":"m 136 1124 b 235 1021 136 1060 160 1021 b 333 1122 310 1021 333 1060 b 233 1225 333 1185 308 1225 b 136 1124 158 1225 136 1186 z m 18 972 l 18 964 l 197 964 l 199 961 l 4 8 l 4 0 l 464 0 l 464 8 l 257 8 l 256 11 l 450 964 l 450 972 z "},"ż":{"ha":449,"x_min":0,"x_max":0,"o":"m 126 858 b 225 756 126 794 150 756 b 324 857 300 756 324 794 b 224 960 324 919 299 960 b 126 858 149 960 126 921 z m 443 0 l 443 8 l 247 8 l 246 11 l 425 700 l 425 708 l 25 708 l 25 700 l 185 700 l 186 697 l 6 8 l 6 0 z "},"ſ":{"ha":675,"x_min":0,"x_max":0,"o":"m 8 0 l 667 0 l 667 972 l 8 972 z m 119 903 l 556 903 l 338 543 z m 78 857 l 303 486 l 78 115 z m 372 486 l 597 857 l 597 115 z m 338 429 l 556 69 l 119 69 z "},"̦":{"ha":219,"x_min":0,"x_max":0,"o":"m 8 -204 l 40 -204 l 211 -14 l 22 -14 z "},"ȷ":{"ha":254,"x_min":0,"x_max":0,"o":"m 244 -60 l 244 708 l 8 708 l 8 -187 b -36 -272 8 -225 8 -272 b -56 -271 -42 -272 -49 -272 l -56 -279 b 68 -292 -10 -286 32 -292 b 244 -60 179 -292 244 -244 z "}}}
